<?xml version="1.0" encoding="utf-8" standalone="no"?>
<!DOCTYPE svg PUBLIC "-//W3C//DTD SVG 1.1//EN"
  "http://www.w3.org/Graphics/SVG/1.1/DTD/svg11.dtd">
<!-- Created with matplotlib (http://matplotlib.org/) -->
<svg height="288pt" version="1.1" viewBox="0 0 504 288" width="504pt" xmlns="http://www.w3.org/2000/svg" xmlns:xlink="http://www.w3.org/1999/xlink">
 <defs>
  <style type="text/css">
*{stroke-linecap:butt;stroke-linejoin:round;}
  </style>
 </defs>
 <g id="figure_1">
  <g id="patch_1">
   <path d="M 0 288 
L 504 288 
L 504 0 
L 0 0 
z
" style="fill:none;"/>
  </g>
  <g id="axes_1">
   <g id="patch_2">
    <path d="M 75.6 169.92 
L 498.96 169.92 
L 498.96 2.88 
L 75.6 2.88 
z
" style="fill:none;"/>
   </g>
   <g id="PolyCollection_1">
    <path clip-path="url(#p41c4883b14)" d="M 38.244706 2426.587101 
L 38.244706 4793.433938 
L 40.735059 4485.021035 
L 43.225412 4189.323455 
L 45.715765 3906.482207 
L 48.206118 3636.568855 
L 50.696471 3379.588254 
L 53.186824 3135.481903 
L 55.677176 2904.13182 
L 58.167529 2685.36487 
L 60.657882 2478.957428 
L 63.148235 2284.640311 
L 65.638588 2102.103863 
L 68.128941 1931.003128 
L 70.619294 1770.963016 
L 73.109647 1621.583391 
L 75.6 1482.444026 
L 78.090353 1353.109349 
L 80.580706 1233.132941 
L 83.071059 1122.061754 
L 85.561412 1019.440005 
L 88.051765 924.812725 
L 90.542118 837.728968 
L 93.032471 757.744644 
L 95.522824 684.425 
L 98.013176 617.346749 
L 100.503529 556.099852 
L 102.993882 500.288972 
L 105.484235 449.534628 
L 107.974588 403.474055 
L 110.464941 361.761805 
L 112.955294 324.070112 
L 115.445647 290.089046 
L 117.936 259.526478 
L 120.426353 232.107889 
L 122.916706 207.576042 
L 125.407059 185.690546 
L 127.897412 166.227329 
L 130.387765 148.978047 
L 132.878118 133.749447 
L 135.368471 120.362709 
L 137.858824 108.652774 
L 140.349176 98.467696 
L 142.839529 89.668025 
L 145.329882 82.12625 
L 147.820235 75.726332 
L 150.310588 70.363339 
L 152.800941 65.943222 
L 155.291294 62.382651 
L 157.781647 59.60877 
L 160.272 57.558304 
L 162.762353 56.175009 
L 165.252706 55.404198 
L 167.743059 55.184785 
L 170.233412 55.443379 
L 172.723765 56.096536 
L 175.214118 57.060655 
L 177.704471 58.261852 
L 180.194824 59.640347 
L 182.685176 61.149966 
L 185.175529 62.755588 
L 187.665882 64.430444 
L 190.156235 66.153955 
L 192.646588 67.910165 
L 195.136941 69.68665 
L 197.627294 71.473748 
L 200.117647 73.26402 
L 202.608 75.051838 
L 205.098353 76.833068 
L 207.588706 78.604804 
L 210.079059 80.365127 
L 212.569412 82.11287 
L 215.059765 83.847399 
L 217.550118 85.568384 
L 220.040471 87.275591 
L 222.530824 88.968691 
L 225.021176 90.647118 
L 227.511529 92.309976 
L 230.001882 93.956008 
L 232.492235 95.583619 
L 234.982588 97.190953 
L 237.472941 98.77598 
L 239.963294 100.336606 
L 242.453647 101.870768 
L 244.944 103.376516 
L 247.434353 104.852067 
L 249.924706 106.295854 
L 252.415059 107.706537 
L 254.905412 109.083016 
L 257.395765 110.424424 
L 259.886118 111.730116 
L 262.376471 112.999654 
L 264.866824 114.232787 
L 267.357176 115.429432 
L 269.847529 116.589658 
L 272.337882 117.713662 
L 274.828235 118.801759 
L 277.318588 119.85436 
L 279.808941 120.87196 
L 282.299294 121.855126 
L 284.789647 122.804485 
L 287.28 123.720713 
L 289.770353 124.604526 
L 292.260706 125.456671 
L 294.751059 126.277922 
L 297.241412 127.06907 
L 299.731765 127.830921 
L 302.222118 128.564288 
L 304.712471 129.269989 
L 307.202824 129.94884 
L 309.693176 130.601658 
L 312.183529 131.229253 
L 314.673882 131.832427 
L 317.164235 132.411971 
L 319.654588 132.968668 
L 322.144941 133.503284 
L 324.635294 134.016574 
L 327.125647 134.509277 
L 329.616 134.982114 
L 332.106353 135.435793 
L 334.596706 135.871002 
L 337.087059 136.288412 
L 339.577412 136.688677 
L 342.067765 137.072432 
L 344.558118 137.440296 
L 347.048471 137.792867 
L 349.538824 138.130728 
L 352.029176 138.454442 
L 354.519529 138.764555 
L 357.009882 139.061595 
L 359.500235 139.346073 
L 361.990588 139.618485 
L 364.480941 139.879307 
L 366.971294 140.129002 
L 369.461647 140.368013 
L 371.952 140.596771 
L 374.442353 140.81569 
L 376.932706 141.025169 
L 379.423059 141.225594 
L 381.913412 141.417335 
L 384.403765 141.60075 
L 386.894118 141.776182 
L 389.384471 141.943962 
L 391.874824 142.104408 
L 394.365176 142.257827 
L 396.855529 142.404513 
L 399.345882 142.544749 
L 401.836235 142.678806 
L 404.326588 142.806946 
L 406.816941 142.929421 
L 409.307294 143.04647 
L 411.797647 143.158326 
L 414.288 143.265211 
L 416.778353 143.367337 
L 419.268706 143.464909 
L 421.759059 143.558124 
L 424.249412 143.64717 
L 426.739765 143.732227 
L 429.230118 143.813468 
L 431.720471 143.89106 
L 434.210824 143.965161 
L 436.701176 144.035924 
L 439.191529 144.103495 
L 441.681882 144.168014 
L 444.172235 144.229614 
L 446.662588 144.288426 
L 449.152941 144.344571 
L 451.643294 144.398167 
L 454.133647 144.449327 
L 456.624 144.498159 
L 459.114353 144.544767 
L 461.604706 144.589249 
L 464.095059 144.6317 
L 466.585412 144.672211 
L 469.075765 144.710868 
L 471.566118 144.747755 
L 474.056471 144.78295 
L 476.546824 144.81653 
L 479.037176 144.848567 
L 481.527529 144.879131 
L 484.017882 144.908288 
L 486.508235 144.936101 
L 488.998588 144.962632 
L 491.488941 144.987938 
L 493.979294 145.012074 
L 496.469647 145.035095 
L 498.96 145.05705 
L 501.450353 145.077988 
L 503.940706 145.097955 
L 506.431059 145.116995 
L 508.921412 145.135152 
L 511.411765 -5635.802275 
L 513.902118 -5322.072493 
L 516.392471 -5028.180035 
L 518.882824 -4753.307955 
L 521.373176 -4496.639994 
L 523.863529 -4257.363518 
L 526.353882 -4034.672282 
L 528.844235 -3827.769007 
L 531.334588 -3635.867785 
L 533.824941 -3458.196287 
L 533.824941 -5595.871269 
L 533.824941 -5595.871269 
L 531.334588 -5950.061721 
L 528.844235 -6331.991558 
L 526.353882 -6742.977814 
L 523.863529 -7184.328073 
L 521.373176 -7657.333177 
L 518.882824 -8163.259707 
L 516.392471 -8703.342344 
L 513.902118 -9278.776184 
L 511.411765 -9890.709122 
L 508.921412 110.453369 
L 506.431059 110.450901 
L 503.940706 110.448273 
L 501.450353 110.445475 
L 498.96 110.442497 
L 496.469647 110.439328 
L 493.979294 110.435956 
L 491.488941 110.432367 
L 488.998588 110.42855 
L 486.508235 110.42449 
L 484.017882 110.420172 
L 481.527529 110.41558 
L 479.037176 110.410697 
L 476.546824 110.405506 
L 474.056471 110.399987 
L 471.566118 110.394122 
L 469.075765 110.387887 
L 466.585412 110.381262 
L 464.095059 110.374223 
L 461.604706 110.366743 
L 459.114353 110.358798 
L 456.624 110.350357 
L 454.133647 110.341393 
L 451.643294 110.331872 
L 449.152941 110.321762 
L 446.662588 110.311027 
L 444.172235 110.299629 
L 441.681882 110.287529 
L 439.191529 110.274685 
L 436.701176 110.261052 
L 434.210824 110.246583 
L 431.720471 110.231228 
L 429.230118 110.214935 
L 426.739765 110.197647 
L 424.249412 110.179306 
L 421.759059 110.159849 
L 419.268706 110.13921 
L 416.778353 110.117319 
L 414.288 110.094102 
L 411.797647 110.069481 
L 409.307294 110.043373 
L 406.816941 110.01569 
L 404.326588 109.986341 
L 401.836235 109.955227 
L 399.345882 109.922245 
L 396.855529 109.887285 
L 394.365176 109.850233 
L 391.874824 109.810965 
L 389.384471 109.769354 
L 386.894118 109.725263 
L 384.403765 109.678547 
L 381.913412 109.629054 
L 379.423059 109.576624 
L 376.932706 109.521087 
L 374.442353 109.462264 
L 371.952 109.399966 
L 369.461647 109.333991 
L 366.971294 109.26413 
L 364.480941 109.190159 
L 361.990588 109.111844 
L 359.500235 109.028936 
L 357.009882 108.941173 
L 354.519529 108.84828 
L 352.029176 108.749964 
L 349.538824 108.645918 
L 347.048471 108.535818 
L 344.558118 108.419322 
L 342.067765 108.29607 
L 339.577412 108.165683 
L 337.087059 108.027759 
L 334.596706 107.881877 
L 332.106353 107.727592 
L 329.616 107.564437 
L 327.125647 107.391919 
L 324.635294 107.209518 
L 322.144941 107.016688 
L 319.654588 106.812853 
L 317.164235 106.597409 
L 314.673882 106.369719 
L 312.183529 106.129112 
L 309.693176 105.874884 
L 307.202824 105.606293 
L 304.712471 105.322562 
L 302.222118 105.022869 
L 299.731765 104.706355 
L 297.241412 104.372114 
L 294.751059 104.019195 
L 292.260706 103.646599 
L 289.770353 103.253276 
L 287.28 102.838123 
L 284.789647 102.39998 
L 282.299294 101.937629 
L 279.808941 101.449791 
L 277.318588 100.93512 
L 274.828235 100.392202 
L 272.337882 99.819551 
L 269.847529 99.215604 
L 267.357176 98.578718 
L 264.866824 97.907168 
L 262.376471 97.199138 
L 259.886118 96.452723 
L 257.395765 95.665927 
L 254.905412 94.836661 
L 252.415059 93.962747 
L 249.924706 93.041929 
L 247.434353 92.071889 
L 244.944 91.050272 
L 242.453647 89.974728 
L 239.963294 88.842975 
L 237.472941 87.652878 
L 234.982588 86.402556 
L 232.492235 85.090524 
L 230.001882 83.71584 
L 227.511529 82.278282 
L 225.021176 80.778515 
L 222.530824 79.218243 
L 220.040471 77.600324 
L 217.550118 75.928839 
L 215.059765 74.20911 
L 212.569412 72.447675 
L 210.079059 70.652236 
L 207.588706 68.831588 
L 205.098353 66.995563 
L 202.608 65.154976 
L 200.117647 63.321587 
L 197.627294 61.508074 
L 195.136941 59.727993 
L 192.646588 57.995715 
L 190.156235 56.326287 
L 187.665882 54.735192 
L 185.175529 53.237902 
L 182.685176 51.849138 
L 180.194824 50.581685 
L 177.704471 49.44464 
L 175.214118 48.441151 
L 172.723765 47.566348 
L 170.233412 46.807351 
L 167.743059 46.148209 
L 165.252706 45.58036 
L 162.762353 45.113156 
L 160.272 44.776779 
L 157.781647 44.61704 
L 155.291294 44.688168 
L 152.800941 45.048127 
L 150.310588 45.756878 
L 147.820235 46.876363 
L 145.329882 48.471136 
L 142.839529 50.609138 
L 140.349176 53.362413 
L 137.858824 56.80772 
L 135.368471 61.027047 
L 132.878118 66.108045 
L 130.387765 72.144396 
L 127.897412 79.236132 
L 125.407059 87.489905 
L 122.916706 97.019224 
L 120.426353 107.944654 
L 117.936 120.39398 
L 115.445647 134.502338 
L 112.955294 150.412314 
L 110.464941 168.274003 
L 107.974588 188.245033 
L 105.484235 210.490551 
L 102.993882 235.183163 
L 100.503529 262.502838 
L 98.013176 292.63675 
L 95.522824 325.779082 
L 93.032471 362.130764 
L 90.542118 401.899154 
L 88.051765 445.297655 
L 85.561412 492.545254 
L 83.071059 543.865993 
L 80.580706 599.488355 
L 78.090353 659.644561 
L 75.6 724.569783 
L 73.109647 794.501253 
L 70.619294 869.677277 
L 68.128941 950.336145 
L 65.638588 1036.714942 
L 63.148235 1129.048239 
L 60.657882 1227.566697 
L 58.167529 1332.495552 
L 55.677176 1444.053012 
L 53.186824 1562.448552 
L 50.696471 1687.881125 
L 48.206118 1820.537303 
L 45.715765 1960.589348 
L 43.225412 2108.193243 
L 40.735059 2263.48669 
L 38.244706 2426.587101 
z
" style="fill-opacity:0.3;stroke:#000000;stroke-opacity:0.3;"/>
   </g>
   <g id="patch_3">
    <path clip-path="url(#p41c4883b14)" d="M 38.244706 169.92 
L 38.244706 2.88 
L 150.310588 2.88 
L 150.310588 169.92 
z
" style="opacity:0.2;stroke:#000000;stroke-linejoin:miter;"/>
   </g>
   <g id="patch_4">
    <path clip-path="url(#p41c4883b14)" d="M 424.249412 169.92 
L 424.249412 2.88 
L 536.315294 2.88 
L 536.315294 169.92 
z
" style="opacity:0.2;stroke:#000000;stroke-linejoin:miter;"/>
   </g>
   <g id="patch_5">
    <path clip-path="url(#p41c4883b14)" d="M 75.6 145.502651 
L 75.6 110.489358 
L 498.96 110.489358 
L 498.96 145.502651 
z
" style="fill:#ff0000;opacity:0.3;stroke:#ff0000;stroke-linejoin:miter;"/>
   </g>
   <g id="matplotlib.axis_1">
    <g id="xtick_1">
     <g id="line2d_1">
      <defs>
       <path d="M 0 1.75 
L 0 -1.75 
" id="m61a48240ca" style="stroke:#000000;stroke-width:0.8;"/>
      </defs>
      <g>
       <use style="stroke:#000000;stroke-width:0.8;" x="88.051765" xlink:href="#m61a48240ca" y="169.92"/>
      </g>
     </g>
    </g>
    <g id="xtick_2">
     <g id="line2d_2">
      <g>
       <use style="stroke:#000000;stroke-width:0.8;" x="137.858824" xlink:href="#m61a48240ca" y="169.92"/>
      </g>
     </g>
    </g>
    <g id="xtick_3">
     <g id="line2d_3">
      <g>
       <use style="stroke:#000000;stroke-width:0.8;" x="187.665882" xlink:href="#m61a48240ca" y="169.92"/>
      </g>
     </g>
    </g>
    <g id="xtick_4">
     <g id="line2d_4">
      <g>
       <use style="stroke:#000000;stroke-width:0.8;" x="237.472941" xlink:href="#m61a48240ca" y="169.92"/>
      </g>
     </g>
    </g>
    <g id="xtick_5">
     <g id="line2d_5">
      <g>
       <use style="stroke:#000000;stroke-width:0.8;" x="287.28" xlink:href="#m61a48240ca" y="169.92"/>
      </g>
     </g>
    </g>
    <g id="xtick_6">
     <g id="line2d_6">
      <g>
       <use style="stroke:#000000;stroke-width:0.8;" x="337.087059" xlink:href="#m61a48240ca" y="169.92"/>
      </g>
     </g>
    </g>
    <g id="xtick_7">
     <g id="line2d_7">
      <g>
       <use style="stroke:#000000;stroke-width:0.8;" x="386.894118" xlink:href="#m61a48240ca" y="169.92"/>
      </g>
     </g>
    </g>
    <g id="xtick_8">
     <g id="line2d_8">
      <g>
       <use style="stroke:#000000;stroke-width:0.8;" x="436.701176" xlink:href="#m61a48240ca" y="169.92"/>
      </g>
     </g>
    </g>
    <g id="xtick_9">
     <g id="line2d_9">
      <g>
       <use style="stroke:#000000;stroke-width:0.8;" x="486.508235" xlink:href="#m61a48240ca" y="169.92"/>
      </g>
     </g>
    </g>
   </g>
   <g id="matplotlib.axis_2">
    <g id="ytick_1">
     <g id="line2d_10">
      <defs>
       <path d="M 1.75 0 
L -1.75 -0 
" id="m7f2eb24ed3" style="stroke:#000000;stroke-width:0.8;"/>
      </defs>
      <g>
       <use style="stroke:#000000;stroke-width:0.8;" x="75.6" xlink:href="#m7f2eb24ed3" y="165.845854"/>
      </g>
     </g>
     <g id="text_1">
      <!-- $-0.004$ -->
      <defs>
       <path d="M 65.90625 23 
C 67.59375 23 69.40625 23 69.40625 25 
C 69.40625 27 67.59375 27 65.90625 27 
L 11.796875 27 
C 10.09375 27 8.296875 27 8.296875 25 
C 8.296875 23 10.09375 23 11.796875 23 
z
" id="CMSY10-0"/>
       <path d="M 42 31.640625 
C 42 37.75 41.90625 48.125 37.703125 56.109375 
C 34 63.109375 28.09375 65.59375 22.90625 65.59375 
C 18.09375 65.59375 12 63.40625 8.203125 56.203125 
C 4.203125 48.71875 3.796875 39.4375 3.796875 31.640625 
C 3.796875 25.953125 3.90625 17.28125 7 9.671875 
C 11.296875 -0.609375 19 -2 22.90625 -2 
C 27.5 -2 34.5 -0.109375 38.59375 9.375 
C 41.59375 16.28125 42 24.359375 42 31.640625 
z
M 22.90625 -0.40625 
C 16.5 -0.40625 12.703125 5.078125 11.296875 12.6875 
C 10.203125 18.5625 10.203125 27.15625 10.203125 32.75 
C 10.203125 40.4375 10.203125 46.828125 11.5 52.921875 
C 13.40625 61.390625 19 64 22.90625 64 
C 27 64 32.296875 61.296875 34.203125 53.125 
C 35.5 47.4375 35.59375 40.734375 35.59375 32.75 
C 35.59375 26.25 35.59375 18.265625 34.40625 12.375 
C 32.296875 1.484375 26.40625 -0.40625 22.90625 -0.40625 
z
" id="CMR17-48"/>
       <path d="M 18.40625 4.796875 
C 18.40625 7.6875 16 9.671875 13.59375 9.671875 
C 10.703125 9.671875 8.703125 7.28125 8.703125 4.890625 
C 8.703125 2 11.09375 0 13.5 0 
C 16.40625 0 18.40625 2.390625 18.40625 4.796875 
z
" id="CMMI12-58"/>
       <path d="M 33.59375 64.40625 
C 33.59375 66.5 33.5 66.5 31.703125 66.5 
L 2 19.59375 
L 2 17 
L 27.796875 17 
L 27.796875 7.140625 
C 27.796875 3.5 27.59375 2.5 20.59375 2.5 
L 18.703125 2.5 
L 18.703125 0 
C 21.90625 0 27.296875 0 30.703125 0 
C 34.09375 0 39.5 0 42.703125 0 
L 42.703125 2.5 
L 40.796875 2.5 
C 33.796875 2.5 33.59375 3.5 33.59375 7.140625 
L 33.59375 17 
L 43.796875 17 
L 43.796875 19.59375 
L 33.59375 19.59375 
z
M 28.09375 57.859375 
L 28.09375 19.59375 
L 4 19.59375 
z
" id="CMR17-52"/>
      </defs>
      <g transform="translate(39.908507 169.305103)scale(0.1 -0.1)">
       <use transform="scale(0.996264)" xlink:href="#CMSY10-0"/>
       <use transform="translate(77.487468 0)scale(0.996264)" xlink:href="#CMR17-48"/>
       <use transform="translate(123.177945 0)scale(0.996264)" xlink:href="#CMMI12-58"/>
       <use transform="translate(150.275122 0)scale(0.996264)" xlink:href="#CMR17-48"/>
       <use transform="translate(195.965599 0)scale(0.996264)" xlink:href="#CMR17-48"/>
       <use transform="translate(241.656076 0)scale(0.996264)" xlink:href="#CMR17-52"/>
      </g>
     </g>
    </g>
    <g id="ytick_2">
     <g id="line2d_11">
      <g>
       <use style="stroke:#000000;stroke-width:0.8;" x="75.6" xlink:href="#m7f2eb24ed3" y="125.10439"/>
      </g>
     </g>
     <g id="text_2">
      <!-- $-0.003$ -->
      <defs>
       <path d="M 22.09375 33.703125 
C 31 33.703125 34.90625 25.96875 34.90625 17.03125 
C 34.90625 5 28.5 0.390625 22.703125 0.390625 
C 17.40625 0.390625 8.796875 3.03125 6.09375 10.828125 
C 6.59375 10.625 7.09375 10.625 7.59375 10.625 
C 10 10.625 11.796875 12.21875 11.796875 14.8125 
C 11.796875 17.703125 9.59375 19 7.59375 19 
C 5.90625 19 3.296875 18.203125 3.296875 14.46875 
C 3.296875 5.234375 12.296875 -2 22.90625 -2 
C 34 -2 42.5 6.71875 42.5 16.953125 
C 42.5 26.671875 34.5 33.703125 25 34.796875 
C 32.59375 36.375 39.90625 43.0625 39.90625 52.015625 
C 39.90625 59.6875 32 65.296875 23 65.296875 
C 13.90625 65.296875 5.90625 59.828125 5.90625 52.015625 
C 5.90625 48.59375 8.5 48 9.796875 48 
C 11.90625 48 13.703125 49.296875 13.703125 51.890625 
C 13.703125 54.46875 11.90625 55.765625 9.796875 55.765625 
C 9.40625 55.765625 8.90625 55.765625 8.5 55.578125 
C 11.40625 61.859375 19.296875 63 22.796875 63 
C 26.296875 63 32.90625 61.328125 32.90625 51.875 
C 32.90625 49.109375 32.5 44.1875 29.09375 39.84375 
C 26.09375 36 22.703125 36 19.40625 35.6875 
C 18.90625 35.6875 16.59375 35.453125 16.203125 35.453125 
C 15.5 35.359375 15.09375 35.265625 15.09375 34.5 
C 15.09375 33.796875 15.203125 33.703125 17.203125 33.703125 
z
" id="CMR17-51"/>
      </defs>
      <g transform="translate(39.908507 128.563639)scale(0.1 -0.1)">
       <use transform="scale(0.996264)" xlink:href="#CMSY10-0"/>
       <use transform="translate(77.487468 0)scale(0.996264)" xlink:href="#CMR17-48"/>
       <use transform="translate(123.177945 0)scale(0.996264)" xlink:href="#CMMI12-58"/>
       <use transform="translate(150.275122 0)scale(0.996264)" xlink:href="#CMR17-48"/>
       <use transform="translate(195.965599 0)scale(0.996264)" xlink:href="#CMR17-48"/>
       <use transform="translate(241.656076 0)scale(0.996264)" xlink:href="#CMR17-51"/>
      </g>
     </g>
    </g>
    <g id="ytick_3">
     <g id="line2d_12">
      <g>
       <use style="stroke:#000000;stroke-width:0.8;" x="75.6" xlink:href="#m7f2eb24ed3" y="84.362927"/>
      </g>
     </g>
     <g id="text_3">
      <!-- $-0.002$ -->
      <defs>
       <path d="M 41.703125 15.453125 
L 39.90625 15.453125 
C 38.90625 8.375 38.09375 7.171875 37.703125 6.5625 
C 37.203125 5.765625 30 5.765625 28.59375 5.765625 
L 9.40625 5.765625 
C 13 9.671875 20 16.75 28.5 24.953125 
C 34.59375 30.734375 41.703125 37.53125 41.703125 47.421875 
C 41.703125 59.21875 32.296875 66 21.796875 66 
C 10.796875 66 4.09375 56.3125 4.09375 47.34375 
C 4.09375 43.4375 7 42.9375 8.203125 42.9375 
C 9.203125 42.9375 12.203125 43.546875 12.203125 47.03125 
C 12.203125 50.109375 9.59375 51 8.203125 51 
C 7.59375 51 7 50.90625 6.59375 50.703125 
C 8.5 59.21875 14.296875 63.40625 20.40625 63.40625 
C 29.09375 63.40625 34.796875 56.515625 34.796875 47.421875 
C 34.796875 38.734375 29.703125 31.25 24 24.75 
L 4.09375 2.28125 
L 4.09375 0 
L 39.296875 0 
z
" id="CMR17-50"/>
      </defs>
      <g transform="translate(39.908507 87.822176)scale(0.1 -0.1)">
       <use transform="scale(0.996264)" xlink:href="#CMSY10-0"/>
       <use transform="translate(77.487468 0)scale(0.996264)" xlink:href="#CMR17-48"/>
       <use transform="translate(123.177945 0)scale(0.996264)" xlink:href="#CMMI12-58"/>
       <use transform="translate(150.275122 0)scale(0.996264)" xlink:href="#CMR17-48"/>
       <use transform="translate(195.965599 0)scale(0.996264)" xlink:href="#CMR17-48"/>
       <use transform="translate(241.656076 0)scale(0.996264)" xlink:href="#CMR17-50"/>
      </g>
     </g>
    </g>
    <g id="ytick_4">
     <g id="line2d_13">
      <g>
       <use style="stroke:#000000;stroke-width:0.8;" x="75.6" xlink:href="#m7f2eb24ed3" y="43.621463"/>
      </g>
     </g>
     <g id="text_4">
      <!-- $-0.001$ -->
      <defs>
       <path d="M 26.59375 63.40625 
C 26.59375 65.5 26.5 65.5 25.09375 65.5 
C 21.203125 61.1875 15.296875 59.796875 9.703125 59.796875 
C 9.40625 59.796875 8.90625 59.796875 8.796875 59.5 
C 8.703125 59.296875 8.703125 59.09375 8.703125 57 
C 11.796875 57 17 57.59375 21 59.984375 
L 21 7.203125 
C 21 3.6875 20.796875 2.5 12.203125 2.5 
L 9.203125 2.5 
L 9.203125 0 
C 14 0 19 0 23.796875 0 
C 28.59375 0 33.59375 0 38.40625 0 
L 38.40625 2.5 
L 35.40625 2.5 
C 26.796875 2.5 26.59375 3.59375 26.59375 7.15625 
z
" id="CMR17-49"/>
      </defs>
      <g transform="translate(39.908507 47.080713)scale(0.1 -0.1)">
       <use transform="scale(0.996264)" xlink:href="#CMSY10-0"/>
       <use transform="translate(77.487468 0)scale(0.996264)" xlink:href="#CMR17-48"/>
       <use transform="translate(123.177945 0)scale(0.996264)" xlink:href="#CMMI12-58"/>
       <use transform="translate(150.275122 0)scale(0.996264)" xlink:href="#CMR17-48"/>
       <use transform="translate(195.965599 0)scale(0.996264)" xlink:href="#CMR17-48"/>
       <use transform="translate(241.656076 0)scale(0.996264)" xlink:href="#CMR17-49"/>
      </g>
     </g>
    </g>
    <g id="ytick_5">
     <g id="line2d_14">
      <g>
       <use style="stroke:#000000;stroke-width:0.8;" x="75.6" xlink:href="#m7f2eb24ed3" y="2.88"/>
      </g>
     </g>
     <g id="text_5">
      <!-- $0.000$ -->
      <g transform="translate(47.657251 6.339249)scale(0.1 -0.1)">
       <use transform="scale(0.996264)" xlink:href="#CMR17-48"/>
       <use transform="translate(45.690477 0)scale(0.996264)" xlink:href="#CMMI12-58"/>
       <use transform="translate(72.787654 0)scale(0.996264)" xlink:href="#CMR17-48"/>
       <use transform="translate(118.478131 0)scale(0.996264)" xlink:href="#CMR17-48"/>
       <use transform="translate(164.168608 0)scale(0.996264)" xlink:href="#CMR17-48"/>
      </g>
     </g>
    </g>
    <g id="text_6">
     <!-- $\Delta E_0^{\rm 4\_E\_1}$ -->
     <defs>
      <path d="M 40.59375 68.796875 
C 39.796875 70.5 39.40625 70.5 38.59375 70.5 
C 37.40625 70.5 37.296875 70.296875 36.59375 68.890625 
L 4.203125 1.703125 
C 4.09375 1.5 3.703125 0.59375 3.703125 0.5 
C 3.703125 0.09375 3.796875 0 5.59375 0 
L 71.5 0 
C 73.296875 0 73.40625 0.09375 73.40625 0.5 
C 73.40625 0.59375 73 1.5 72.90625 1.703125 
z
M 36.09375 63.09375 
L 63.796875 5.59375 
L 8.296875 5.59375 
z
" id="CMR17-1"/>
      <path d="M 69.5 23.265625 
C 69.59375 23.5625 69.90625 24.28125 69.90625 24.671875 
C 69.90625 25.171875 69.5 25.671875 68.90625 25.671875 
C 68.5 25.671875 68.296875 25.578125 68 25.265625 
C 67.796875 25.171875 67.796875 24.96875 66.90625 22.953125 
C 61 8.90625 56.703125 2.890625 40.703125 2.890625 
L 26.09375 2.890625 
C 24.703125 2.890625 24.5 2.890625 23.90625 3 
C 22.796875 3.09375 22.703125 3.296875 22.703125 4.09375 
C 22.703125 4.796875 22.90625 5.390625 23.09375 6.296875 
L 30 34 
L 39.90625 34 
C 47.703125 34 48.296875 32.28125 48.296875 29.28125 
C 48.296875 28.28125 48.296875 27.375 47.59375 24.375 
C 47.40625 23.96875 47.296875 23.5625 47.296875 23.265625 
C 47.296875 22.5625 47.796875 22.265625 48.40625 22.265625 
C 49.296875 22.265625 49.40625 22.953125 49.796875 24.359375 
L 55.5 47.53125 
C 55.5 48.015625 55.09375 48.515625 54.5 48.515625 
C 53.59375 48.515625 53.5 48.125 53.09375 46.71875 
C 51.09375 39.078125 49.09375 36.890625 40.203125 36.890625 
L 30.703125 36.890625 
L 36.90625 61.40625 
C 37.796875 64.90625 38 64.90625 42.09375 64.90625 
L 56.40625 64.90625 
C 68.703125 64.90625 71.203125 61.609375 71.203125 54.03125 
C 71.203125 53.921875 71.203125 51.140625 70.796875 47.84375 
C 70.703125 47.4375 70.59375 46.84375 70.59375 46.640625 
C 70.59375 45.84375 71.09375 45.546875 71.703125 45.546875 
C 72.40625 45.546875 72.796875 45.953125 73 47.734375 
L 75.09375 65.21875 
C 75.09375 65.546875 75.296875 66.609375 75.296875 66.828125 
C 75.296875 68 74.40625 68 72.59375 68 
L 23.796875 68 
C 21.90625 68 20.90625 68 20.90625 66.078125 
C 20.90625 64.90625 21.59375 64.90625 23.296875 64.90625 
C 29.5 64.90625 29.5 64.28125 29.5 63.3125 
C 29.5 62.8125 29.40625 62.40625 29.09375 61.3125 
L 15.59375 7.390625 
C 14.703125 3.890625 14.5 2.890625 7.5 2.890625 
C 5.59375 2.890625 4.59375 2.890625 4.59375 1.09375 
C 4.59375 0 5.203125 0 7.203125 0 
L 57.40625 0 
C 59.59375 0 59.703125 0.09375 60.40625 1.71875 
z
" id="CMMI12-69"/>
      <path d="M 60.703125 25.234375 
L 58.90625 25.234375 
C 56.703125 10.5625 55.40625 2.59375 37.796875 2.59375 
L 23.90625 2.59375 
C 19.90625 2.59375 19.703125 3.078125 19.703125 6.46875 
L 19.703125 34 
L 29.09375 34 
C 38.5 34 39.40625 30.625 39.40625 22.34375 
L 41.203125 22.34375 
L 41.203125 48.140625 
L 39.40625 48.140625 
C 39.40625 39.953125 38.5 36.59375 29.09375 36.59375 
L 19.703125 36.59375 
L 19.703125 61.140625 
C 19.703125 64.5 19.90625 65 23.90625 65 
L 37.59375 65 
C 53.09375 65 54.90625 58.890625 56.296875 45.765625 
L 58.09375 45.765625 
L 55.703125 67.578125 
L 5.09375 67.578125 
L 5.09375 65 
C 12 65 13.09375 65 13.09375 60.53125 
L 13.09375 7.046875 
C 13.09375 2.59375 12 2.59375 5.09375 2.59375 
L 5.09375 0 
L 57.09375 0 
z
" id="CMR17-69"/>
     </defs>
     <g transform="translate(32.032873 120.116983)rotate(-90)scale(0.2 -0.2)">
      <use transform="translate(0 24.740171)scale(0.996264)" xlink:href="#CMR17-1"/>
      <use transform="translate(76.91959 24.740171)scale(0.996264)" xlink:href="#CMMI12-69"/>
      <use transform="translate(154.971226 60.89381)scale(0.697382)" xlink:href="#CMR17-52"/>
      <use transform="translate(220.681903 60.89381)scale(0.697382)" xlink:href="#CMR17-69"/>
      <use transform="translate(298.219613 60.89381)scale(0.697382)" xlink:href="#CMR17-49"/>
      <use transform="translate(149.130808 0)scale(0.697382)" xlink:href="#CMR17-48"/>
      <path d="M 192.575419 60.89381 
L 220.681903 60.89381 
L 220.681903 61.29231 
L 192.575419 61.29231 
L 192.575419 60.89381 
z
"/>
      <path d="M 270.113129 60.89381 
L 298.219613 60.89381 
L 298.219613 61.29231 
L 270.113129 61.29231 
L 270.113129 60.89381 
z
"/>
     </g>
    </g>
   </g>
   <g id="LineCollection_1">
    <path clip-path="url(#p41c4883b14)" d="M 83.071059 61.38541 
L 83.071059 38.136801 
" style="fill:none;stroke:#ff0000;stroke-width:1.5;"/>
   </g>
   <g id="LineCollection_2">
    <path clip-path="url(#p41c4883b14)" d="M 88.051765 248.458259 
L 88.051765 150.439577 
" style="fill:none;stroke:#008000;stroke-width:1.5;"/>
   </g>
   <g id="LineCollection_3">
    <path clip-path="url(#p41c4883b14)" d="M 93.032471 233.715169 
L 93.032471 141.939578 
" style="fill:none;stroke:#0000ff;stroke-width:1.5;"/>
   </g>
   <g id="LineCollection_4">
    <path clip-path="url(#p41c4883b14)" d="M 107.974588 83.262778 
L 107.974588 62.640601 
" style="fill:none;stroke:#ff0000;stroke-width:1.5;"/>
   </g>
   <g id="LineCollection_5">
    <path clip-path="url(#p41c4883b14)" d="M 112.955294 286.225656 
L 112.955294 161.008658 
" style="fill:none;stroke:#008000;stroke-width:1.5;"/>
   </g>
   <g id="LineCollection_6">
    <path clip-path="url(#p41c4883b14)" d="M 117.936 256.752297 
L 117.936 140.603079 
" style="fill:none;stroke:#0000ff;stroke-width:1.5;"/>
   </g>
   <g id="LineCollection_7">
    <path clip-path="url(#p41c4883b14)" d="M 132.878118 114.639411 
L 132.878118 89.489949 
" style="fill:none;stroke:#ff0000;stroke-width:1.5;"/>
   </g>
   <g id="LineCollection_8">
    <path clip-path="url(#p41c4883b14)" d="M 137.858824 242.814285 
L 137.858824 93.752265 
" style="fill:none;stroke:#008000;stroke-width:1.5;"/>
   </g>
   <g id="LineCollection_9">
    <path clip-path="url(#p41c4883b14)" d="M 142.839529 241.194138 
L 142.839529 100.130308 
" style="fill:none;stroke:#0000ff;stroke-width:1.5;"/>
   </g>
   <g id="LineCollection_10">
    <path clip-path="url(#p41c4883b14)" d="M 157.781647 145.502651 
L 157.781647 110.489358 
" style="fill:none;stroke:#ff0000;stroke-width:1.5;"/>
   </g>
   <g id="LineCollection_11">
    <path clip-path="url(#p41c4883b14)" d="M 162.762353 203.753977 
L 162.762353 58.576145 
" style="fill:none;stroke:#008000;stroke-width:1.5;"/>
   </g>
   <g id="LineCollection_12">
    <path clip-path="url(#p41c4883b14)" d="M 167.743059 207.346912 
L 167.743059 59.600998 
" style="fill:none;stroke:#0000ff;stroke-width:1.5;"/>
   </g>
   <g id="LineCollection_13">
    <path clip-path="url(#p41c4883b14)" d="M 182.685176 136.129414 
L 182.685176 89.571753 
" style="fill:none;stroke:#ff0000;stroke-width:1.5;"/>
   </g>
   <g id="LineCollection_14">
    <path clip-path="url(#p41c4883b14)" d="M 187.665882 215.388562 
L 187.665882 41.459388 
" style="fill:none;stroke:#008000;stroke-width:1.5;"/>
   </g>
   <g id="LineCollection_15">
    <path clip-path="url(#p41c4883b14)" d="M 192.646588 222.962885 
L 192.646588 54.586732 
" style="fill:none;stroke:#0000ff;stroke-width:1.5;"/>
   </g>
   <g id="LineCollection_16">
    <path clip-path="url(#p41c4883b14)" d="M 207.588706 136.422782 
L 207.588706 74.537209 
" style="fill:none;stroke:#ff0000;stroke-width:1.5;"/>
   </g>
   <g id="LineCollection_17">
    <path clip-path="url(#p41c4883b14)" d="M 212.569412 218.696988 
L 212.569412 39.857941 
" style="fill:none;stroke:#008000;stroke-width:1.5;"/>
   </g>
   <g id="LineCollection_18">
    <path clip-path="url(#p41c4883b14)" d="M 217.550118 226.614382 
L 217.550118 56.946372 
" style="fill:none;stroke:#0000ff;stroke-width:1.5;"/>
   </g>
   <g id="LineCollection_19">
    <path clip-path="url(#p41c4883b14)" d="M 232.492235 141.729575 
L 232.492235 66.605683 
" style="fill:none;stroke:#ff0000;stroke-width:1.5;"/>
   </g>
   <g id="LineCollection_20">
    <path clip-path="url(#p41c4883b14)" d="M 237.472941 216.50171 
L 237.472941 37.703136 
" style="fill:none;stroke:#008000;stroke-width:1.5;"/>
   </g>
   <g id="LineCollection_21">
    <path clip-path="url(#p41c4883b14)" d="M 242.453647 222.722293 
L 242.453647 50.890304 
" style="fill:none;stroke:#0000ff;stroke-width:1.5;"/>
   </g>
   <g id="LineCollection_22">
    <path clip-path="url(#p41c4883b14)" d="M 257.395765 144.660307 
L 257.395765 64.26514 
" style="fill:none;stroke:#ff0000;stroke-width:1.5;"/>
   </g>
   <g id="LineCollection_23">
    <path clip-path="url(#p41c4883b14)" d="M 262.376471 225.028266 
L 262.376471 40.135293 
" style="fill:none;stroke:#008000;stroke-width:1.5;"/>
   </g>
   <g id="LineCollection_24">
    <path clip-path="url(#p41c4883b14)" d="M 267.357176 240.940083 
L 267.357176 65.554027 
" style="fill:none;stroke:#0000ff;stroke-width:1.5;"/>
   </g>
   <g id="LineCollection_25">
    <path clip-path="url(#p41c4883b14)" d="M 282.299294 162.508463 
L 282.299294 69.891158 
" style="fill:none;stroke:#ff0000;stroke-width:1.5;"/>
   </g>
   <g id="LineCollection_26">
    <path clip-path="url(#p41c4883b14)" d="M 287.28 223.338332 
L 287.28 38.888538 
" style="fill:none;stroke:#008000;stroke-width:1.5;"/>
   </g>
   <g id="LineCollection_27">
    <path clip-path="url(#p41c4883b14)" d="M 292.260706 114.639411 
L 292.260706 89.489949 
" style="fill:none;stroke:#0000ff;stroke-width:1.5;"/>
   </g>
   <g id="LineCollection_28">
    <path clip-path="url(#p41c4883b14)" style="fill:none;stroke:#000000;stroke-width:1.5;"/>
    <path clip-path="url(#p41c4883b14)" d="M 112.955294 4.190589 
L 112.955294 -1 
" style="fill:none;stroke:#000000;stroke-width:1.5;"/>
    <path clip-path="url(#p41c4883b14)" d="M 137.858824 28.6062 
L 137.858824 20.131495 
" style="fill:none;stroke:#000000;stroke-width:1.5;"/>
    <path clip-path="url(#p41c4883b14)" d="M 162.762353 59.177241 
L 162.762353 47.759887 
" style="fill:none;stroke:#000000;stroke-width:1.5;"/>
    <path clip-path="url(#p41c4883b14)" d="M 187.665882 63.930561 
L 187.665882 50.255232 
" style="fill:none;stroke:#000000;stroke-width:1.5;"/>
    <path clip-path="url(#p41c4883b14)" d="M 212.569412 87.638925 
L 212.569412 70.282679 
" style="fill:none;stroke:#000000;stroke-width:1.5;"/>
    <path clip-path="url(#p41c4883b14)" d="M 237.472941 107.079681 
L 237.472941 83.409564 
" style="fill:none;stroke:#000000;stroke-width:1.5;"/>
    <path clip-path="url(#p41c4883b14)" d="M 262.376471 130.437374 
L 262.376471 97.746361 
" style="fill:none;stroke:#000000;stroke-width:1.5;"/>
    <path clip-path="url(#p41c4883b14)" d="M 287.28 124.256188 
L 287.28 80.008515 
" style="fill:none;stroke:#000000;stroke-width:1.5;"/>
    <path clip-path="url(#p41c4883b14)" d="M 312.183529 147.179971 
L 312.183529 81.398823 
" style="fill:none;stroke:#000000;stroke-width:1.5;"/>
    <path clip-path="url(#p41c4883b14)" d="M 337.087059 160.893431 
L 337.087059 59.07502 
" style="fill:none;stroke:#000000;stroke-width:1.5;"/>
    <path clip-path="url(#p41c4883b14)" d="M 361.990588 106.348964 
L 361.990588 -1 
" style="fill:none;stroke:#000000;stroke-width:1.5;"/>
    <path clip-path="url(#p41c4883b14)" d="M 386.894118 261.612054 
L 386.894118 8.39344 
" style="fill:none;stroke:#000000;stroke-width:1.5;"/>
    <path clip-path="url(#p41c4883b14)" d="M 411.797647 214.846926 
L 411.797647 -1 
" style="fill:none;stroke:#000000;stroke-width:1.5;"/>
    <path clip-path="url(#p41c4883b14)" d="M 436.701176 289 
L 436.701176 -1 
" style="fill:none;stroke:#000000;stroke-width:1.5;"/>
    <path clip-path="url(#p41c4883b14)" d="M 461.604706 289 
L 461.604706 -1 
" style="fill:none;stroke:#000000;stroke-width:1.5;"/>
    <path clip-path="url(#p41c4883b14)" d="M 486.508235 289 
L 486.508235 -1 
" style="fill:none;stroke:#000000;stroke-width:1.5;"/>
    <path clip-path="url(#p41c4883b14)" style="fill:none;stroke:#000000;stroke-width:1.5;"/>
    <path clip-path="url(#p41c4883b14)" style="fill:none;stroke:#000000;stroke-width:1.5;"/>
    <path clip-path="url(#p41c4883b14)" style="fill:none;stroke:#000000;stroke-width:1.5;"/>
    <path clip-path="url(#p41c4883b14)" style="fill:none;stroke:#000000;stroke-width:1.5;"/>
    <path clip-path="url(#p41c4883b14)" style="fill:none;stroke:#000000;stroke-width:1.5;"/>
    <path clip-path="url(#p41c4883b14)" style="fill:none;stroke:#000000;stroke-width:1.5;"/>
    <path clip-path="url(#p41c4883b14)" style="fill:none;stroke:#000000;stroke-width:1.5;"/>
   </g>
   <g id="line2d_15">
    <defs>
     <path d="M 3 0 
L -3 -0 
" id="m42d5523371" style="stroke:#ff0000;"/>
    </defs>
    <g clip-path="url(#p41c4883b14)">
     <use style="fill:#ff0000;stroke:#ff0000;" x="83.071059" xlink:href="#m42d5523371" y="61.38541"/>
    </g>
   </g>
   <g id="line2d_16">
    <g clip-path="url(#p41c4883b14)">
     <use style="fill:#ff0000;stroke:#ff0000;" x="83.071059" xlink:href="#m42d5523371" y="38.136801"/>
    </g>
   </g>
   <g id="line2d_17">
    <defs>
     <path d="M 3 0 
L -3 -0 
" id="mfbc9a62855" style="stroke:#008000;"/>
    </defs>
    <g clip-path="url(#p41c4883b14)">
     <use style="fill:#008000;stroke:#008000;" x="88.051765" xlink:href="#mfbc9a62855" y="248.458259"/>
    </g>
   </g>
   <g id="line2d_18">
    <g clip-path="url(#p41c4883b14)">
     <use style="fill:#008000;stroke:#008000;" x="88.051765" xlink:href="#mfbc9a62855" y="150.439577"/>
    </g>
   </g>
   <g id="line2d_19">
    <defs>
     <path d="M 3 0 
L -3 -0 
" id="m74bccee1ab" style="stroke:#0000ff;"/>
    </defs>
    <g clip-path="url(#p41c4883b14)">
     <use style="fill:#0000ff;stroke:#0000ff;" x="93.032471" xlink:href="#m74bccee1ab" y="233.715169"/>
    </g>
   </g>
   <g id="line2d_20">
    <g clip-path="url(#p41c4883b14)">
     <use style="fill:#0000ff;stroke:#0000ff;" x="93.032471" xlink:href="#m74bccee1ab" y="141.939578"/>
    </g>
   </g>
   <g id="line2d_21">
    <g clip-path="url(#p41c4883b14)">
     <use style="fill:#ff0000;stroke:#ff0000;" x="107.974588" xlink:href="#m42d5523371" y="83.262778"/>
    </g>
   </g>
   <g id="line2d_22">
    <g clip-path="url(#p41c4883b14)">
     <use style="fill:#ff0000;stroke:#ff0000;" x="107.974588" xlink:href="#m42d5523371" y="62.640601"/>
    </g>
   </g>
   <g id="line2d_23">
    <g clip-path="url(#p41c4883b14)">
     <use style="fill:#008000;stroke:#008000;" x="112.955294" xlink:href="#mfbc9a62855" y="286.225656"/>
    </g>
   </g>
   <g id="line2d_24">
    <g clip-path="url(#p41c4883b14)">
     <use style="fill:#008000;stroke:#008000;" x="112.955294" xlink:href="#mfbc9a62855" y="161.008658"/>
    </g>
   </g>
   <g id="line2d_25">
    <g clip-path="url(#p41c4883b14)">
     <use style="fill:#0000ff;stroke:#0000ff;" x="117.936" xlink:href="#m74bccee1ab" y="256.752297"/>
    </g>
   </g>
   <g id="line2d_26">
    <g clip-path="url(#p41c4883b14)">
     <use style="fill:#0000ff;stroke:#0000ff;" x="117.936" xlink:href="#m74bccee1ab" y="140.603079"/>
    </g>
   </g>
   <g id="line2d_27">
    <g clip-path="url(#p41c4883b14)">
     <use style="fill:#ff0000;stroke:#ff0000;" x="132.878118" xlink:href="#m42d5523371" y="114.639411"/>
    </g>
   </g>
   <g id="line2d_28">
    <g clip-path="url(#p41c4883b14)">
     <use style="fill:#ff0000;stroke:#ff0000;" x="132.878118" xlink:href="#m42d5523371" y="89.489949"/>
    </g>
   </g>
   <g id="line2d_29">
    <g clip-path="url(#p41c4883b14)">
     <use style="fill:#008000;stroke:#008000;" x="137.858824" xlink:href="#mfbc9a62855" y="242.814285"/>
    </g>
   </g>
   <g id="line2d_30">
    <g clip-path="url(#p41c4883b14)">
     <use style="fill:#008000;stroke:#008000;" x="137.858824" xlink:href="#mfbc9a62855" y="93.752265"/>
    </g>
   </g>
   <g id="line2d_31">
    <g clip-path="url(#p41c4883b14)">
     <use style="fill:#0000ff;stroke:#0000ff;" x="142.839529" xlink:href="#m74bccee1ab" y="241.194138"/>
    </g>
   </g>
   <g id="line2d_32">
    <g clip-path="url(#p41c4883b14)">
     <use style="fill:#0000ff;stroke:#0000ff;" x="142.839529" xlink:href="#m74bccee1ab" y="100.130308"/>
    </g>
   </g>
   <g id="line2d_33">
    <g clip-path="url(#p41c4883b14)">
     <use style="fill:#ff0000;stroke:#ff0000;" x="157.781647" xlink:href="#m42d5523371" y="145.502651"/>
    </g>
   </g>
   <g id="line2d_34">
    <g clip-path="url(#p41c4883b14)">
     <use style="fill:#ff0000;stroke:#ff0000;" x="157.781647" xlink:href="#m42d5523371" y="110.489358"/>
    </g>
   </g>
   <g id="line2d_35">
    <g clip-path="url(#p41c4883b14)">
     <use style="fill:#008000;stroke:#008000;" x="162.762353" xlink:href="#mfbc9a62855" y="203.753977"/>
    </g>
   </g>
   <g id="line2d_36">
    <g clip-path="url(#p41c4883b14)">
     <use style="fill:#008000;stroke:#008000;" x="162.762353" xlink:href="#mfbc9a62855" y="58.576145"/>
    </g>
   </g>
   <g id="line2d_37">
    <g clip-path="url(#p41c4883b14)">
     <use style="fill:#0000ff;stroke:#0000ff;" x="167.743059" xlink:href="#m74bccee1ab" y="207.346912"/>
    </g>
   </g>
   <g id="line2d_38">
    <g clip-path="url(#p41c4883b14)">
     <use style="fill:#0000ff;stroke:#0000ff;" x="167.743059" xlink:href="#m74bccee1ab" y="59.600998"/>
    </g>
   </g>
   <g id="line2d_39">
    <g clip-path="url(#p41c4883b14)">
     <use style="fill:#ff0000;stroke:#ff0000;" x="182.685176" xlink:href="#m42d5523371" y="136.129414"/>
    </g>
   </g>
   <g id="line2d_40">
    <g clip-path="url(#p41c4883b14)">
     <use style="fill:#ff0000;stroke:#ff0000;" x="182.685176" xlink:href="#m42d5523371" y="89.571753"/>
    </g>
   </g>
   <g id="line2d_41">
    <g clip-path="url(#p41c4883b14)">
     <use style="fill:#008000;stroke:#008000;" x="187.665882" xlink:href="#mfbc9a62855" y="215.388562"/>
    </g>
   </g>
   <g id="line2d_42">
    <g clip-path="url(#p41c4883b14)">
     <use style="fill:#008000;stroke:#008000;" x="187.665882" xlink:href="#mfbc9a62855" y="41.459388"/>
    </g>
   </g>
   <g id="line2d_43">
    <g clip-path="url(#p41c4883b14)">
     <use style="fill:#0000ff;stroke:#0000ff;" x="192.646588" xlink:href="#m74bccee1ab" y="222.962885"/>
    </g>
   </g>
   <g id="line2d_44">
    <g clip-path="url(#p41c4883b14)">
     <use style="fill:#0000ff;stroke:#0000ff;" x="192.646588" xlink:href="#m74bccee1ab" y="54.586732"/>
    </g>
   </g>
   <g id="line2d_45">
    <g clip-path="url(#p41c4883b14)">
     <use style="fill:#ff0000;stroke:#ff0000;" x="207.588706" xlink:href="#m42d5523371" y="136.422782"/>
    </g>
   </g>
   <g id="line2d_46">
    <g clip-path="url(#p41c4883b14)">
     <use style="fill:#ff0000;stroke:#ff0000;" x="207.588706" xlink:href="#m42d5523371" y="74.537209"/>
    </g>
   </g>
   <g id="line2d_47">
    <g clip-path="url(#p41c4883b14)">
     <use style="fill:#008000;stroke:#008000;" x="212.569412" xlink:href="#mfbc9a62855" y="218.696988"/>
    </g>
   </g>
   <g id="line2d_48">
    <g clip-path="url(#p41c4883b14)">
     <use style="fill:#008000;stroke:#008000;" x="212.569412" xlink:href="#mfbc9a62855" y="39.857941"/>
    </g>
   </g>
   <g id="line2d_49">
    <g clip-path="url(#p41c4883b14)">
     <use style="fill:#0000ff;stroke:#0000ff;" x="217.550118" xlink:href="#m74bccee1ab" y="226.614382"/>
    </g>
   </g>
   <g id="line2d_50">
    <g clip-path="url(#p41c4883b14)">
     <use style="fill:#0000ff;stroke:#0000ff;" x="217.550118" xlink:href="#m74bccee1ab" y="56.946372"/>
    </g>
   </g>
   <g id="line2d_51">
    <g clip-path="url(#p41c4883b14)">
     <use style="fill:#ff0000;stroke:#ff0000;" x="232.492235" xlink:href="#m42d5523371" y="141.729575"/>
    </g>
   </g>
   <g id="line2d_52">
    <g clip-path="url(#p41c4883b14)">
     <use style="fill:#ff0000;stroke:#ff0000;" x="232.492235" xlink:href="#m42d5523371" y="66.605683"/>
    </g>
   </g>
   <g id="line2d_53">
    <g clip-path="url(#p41c4883b14)">
     <use style="fill:#008000;stroke:#008000;" x="237.472941" xlink:href="#mfbc9a62855" y="216.50171"/>
    </g>
   </g>
   <g id="line2d_54">
    <g clip-path="url(#p41c4883b14)">
     <use style="fill:#008000;stroke:#008000;" x="237.472941" xlink:href="#mfbc9a62855" y="37.703136"/>
    </g>
   </g>
   <g id="line2d_55">
    <g clip-path="url(#p41c4883b14)">
     <use style="fill:#0000ff;stroke:#0000ff;" x="242.453647" xlink:href="#m74bccee1ab" y="222.722293"/>
    </g>
   </g>
   <g id="line2d_56">
    <g clip-path="url(#p41c4883b14)">
     <use style="fill:#0000ff;stroke:#0000ff;" x="242.453647" xlink:href="#m74bccee1ab" y="50.890304"/>
    </g>
   </g>
   <g id="line2d_57">
    <g clip-path="url(#p41c4883b14)">
     <use style="fill:#ff0000;stroke:#ff0000;" x="257.395765" xlink:href="#m42d5523371" y="144.660307"/>
    </g>
   </g>
   <g id="line2d_58">
    <g clip-path="url(#p41c4883b14)">
     <use style="fill:#ff0000;stroke:#ff0000;" x="257.395765" xlink:href="#m42d5523371" y="64.26514"/>
    </g>
   </g>
   <g id="line2d_59">
    <g clip-path="url(#p41c4883b14)">
     <use style="fill:#008000;stroke:#008000;" x="262.376471" xlink:href="#mfbc9a62855" y="225.028266"/>
    </g>
   </g>
   <g id="line2d_60">
    <g clip-path="url(#p41c4883b14)">
     <use style="fill:#008000;stroke:#008000;" x="262.376471" xlink:href="#mfbc9a62855" y="40.135293"/>
    </g>
   </g>
   <g id="line2d_61">
    <g clip-path="url(#p41c4883b14)">
     <use style="fill:#0000ff;stroke:#0000ff;" x="267.357176" xlink:href="#m74bccee1ab" y="240.940083"/>
    </g>
   </g>
   <g id="line2d_62">
    <g clip-path="url(#p41c4883b14)">
     <use style="fill:#0000ff;stroke:#0000ff;" x="267.357176" xlink:href="#m74bccee1ab" y="65.554027"/>
    </g>
   </g>
   <g id="line2d_63">
    <g clip-path="url(#p41c4883b14)">
     <use style="fill:#ff0000;stroke:#ff0000;" x="282.299294" xlink:href="#m42d5523371" y="162.508463"/>
    </g>
   </g>
   <g id="line2d_64">
    <g clip-path="url(#p41c4883b14)">
     <use style="fill:#ff0000;stroke:#ff0000;" x="282.299294" xlink:href="#m42d5523371" y="69.891158"/>
    </g>
   </g>
   <g id="line2d_65">
    <g clip-path="url(#p41c4883b14)">
     <use style="fill:#008000;stroke:#008000;" x="287.28" xlink:href="#mfbc9a62855" y="223.338332"/>
    </g>
   </g>
   <g id="line2d_66">
    <g clip-path="url(#p41c4883b14)">
     <use style="fill:#008000;stroke:#008000;" x="287.28" xlink:href="#mfbc9a62855" y="38.888538"/>
    </g>
   </g>
   <g id="line2d_67">
    <g clip-path="url(#p41c4883b14)">
     <use style="fill:#0000ff;stroke:#0000ff;" x="292.260706" xlink:href="#m74bccee1ab" y="114.639411"/>
    </g>
   </g>
   <g id="line2d_68">
    <g clip-path="url(#p41c4883b14)">
     <use style="fill:#0000ff;stroke:#0000ff;" x="292.260706" xlink:href="#m74bccee1ab" y="89.489949"/>
    </g>
   </g>
   <g id="line2d_69">
    <defs>
     <path d="M 3 0 
L -3 -0 
" id="m5f3ab3ab51" style="stroke:#000000;"/>
    </defs>
    <g clip-path="url(#p41c4883b14)">
     <use style="stroke:#000000;" x="104.339041" xlink:href="#m5f3ab3ab51" y="-1"/>
     <use style="stroke:#000000;" x="112.955294" xlink:href="#m5f3ab3ab51" y="4.190589"/>
     <use style="stroke:#000000;" x="137.858824" xlink:href="#m5f3ab3ab51" y="28.6062"/>
     <use style="stroke:#000000;" x="162.762353" xlink:href="#m5f3ab3ab51" y="59.177241"/>
     <use style="stroke:#000000;" x="187.665882" xlink:href="#m5f3ab3ab51" y="63.930561"/>
     <use style="stroke:#000000;" x="212.569412" xlink:href="#m5f3ab3ab51" y="87.638925"/>
     <use style="stroke:#000000;" x="237.472941" xlink:href="#m5f3ab3ab51" y="107.079681"/>
     <use style="stroke:#000000;" x="262.376471" xlink:href="#m5f3ab3ab51" y="130.437374"/>
     <use style="stroke:#000000;" x="287.28" xlink:href="#m5f3ab3ab51" y="124.256188"/>
     <use style="stroke:#000000;" x="312.183529" xlink:href="#m5f3ab3ab51" y="147.179971"/>
     <use style="stroke:#000000;" x="337.087059" xlink:href="#m5f3ab3ab51" y="160.893431"/>
     <use style="stroke:#000000;" x="361.990588" xlink:href="#m5f3ab3ab51" y="106.348964"/>
     <use style="stroke:#000000;" x="386.894118" xlink:href="#m5f3ab3ab51" y="261.612054"/>
     <use style="stroke:#000000;" x="411.797647" xlink:href="#m5f3ab3ab51" y="214.846926"/>
     <use style="stroke:#000000;" x="436.701176" xlink:href="#m5f3ab3ab51" y="437.472829"/>
     <use style="stroke:#000000;" x="461.604706" xlink:href="#m5f3ab3ab51" y="448.761942"/>
     <use style="stroke:#000000;" x="486.508235" xlink:href="#m5f3ab3ab51" y="1345.015458"/>
     <use style="stroke:#000000;" x="511.411765" xlink:href="#m5f3ab3ab51" y="1418.078245"/>
     <use style="stroke:#000000;" x="525.866455" xlink:href="#m5f3ab3ab51" y="-1"/>
     <use style="stroke:#000000;" x="545.550215" xlink:href="#m5f3ab3ab51" y="-1"/>
     <use style="stroke:#000000;" x="561.218824" xlink:href="#m5f3ab3ab51" y="1739.455216"/>
     <use style="stroke:#000000;" x="586.122353" xlink:href="#m5f3ab3ab51" y="15739.255644"/>
     <use style="stroke:#000000;" x="611.025882" xlink:href="#m5f3ab3ab51" y="19132.735438"/>
     <use style="stroke:#000000;" x="635.929412" xlink:href="#m5f3ab3ab51" y="13993.993308"/>
     <use style="stroke:#000000;" x="640.624669" xlink:href="#m5f3ab3ab51" y="20737"/>
    </g>
   </g>
   <g id="line2d_70">
    <g clip-path="url(#p41c4883b14)">
     <use style="stroke:#000000;" x="114.454566" xlink:href="#m5f3ab3ab51" y="-1"/>
     <use style="stroke:#000000;" x="137.858824" xlink:href="#m5f3ab3ab51" y="20.131495"/>
     <use style="stroke:#000000;" x="162.762353" xlink:href="#m5f3ab3ab51" y="47.759887"/>
     <use style="stroke:#000000;" x="187.665882" xlink:href="#m5f3ab3ab51" y="50.255232"/>
     <use style="stroke:#000000;" x="212.569412" xlink:href="#m5f3ab3ab51" y="70.282679"/>
     <use style="stroke:#000000;" x="237.472941" xlink:href="#m5f3ab3ab51" y="83.409564"/>
     <use style="stroke:#000000;" x="262.376471" xlink:href="#m5f3ab3ab51" y="97.746361"/>
     <use style="stroke:#000000;" x="287.28" xlink:href="#m5f3ab3ab51" y="80.008515"/>
     <use style="stroke:#000000;" x="312.183529" xlink:href="#m5f3ab3ab51" y="81.398823"/>
     <use style="stroke:#000000;" x="337.087059" xlink:href="#m5f3ab3ab51" y="59.07502"/>
     <use style="stroke:#000000;" x="350.007399" xlink:href="#m5f3ab3ab51" y="-1"/>
     <use style="stroke:#000000;" x="383.301335" xlink:href="#m5f3ab3ab51" y="-1"/>
     <use style="stroke:#000000;" x="386.894118" xlink:href="#m5f3ab3ab51" y="8.39344"/>
     <use style="stroke:#000000;" x="387.83611" xlink:href="#m5f3ab3ab51" y="-1"/>
    </g>
   </g>
   <g id="line2d_71">
    <defs>
     <path d="M -3 3 
L 3 3 
L 3 -3 
L -3 -3 
z
" id="mb18d794679" style="stroke:#ff0000;stroke-linejoin:miter;"/>
    </defs>
    <g clip-path="url(#p41c4883b14)">
     <use style="fill-opacity:0;stroke:#ff0000;stroke-linejoin:miter;" x="83.071059" xlink:href="#mb18d794679" y="49.761106"/>
    </g>
   </g>
   <g id="line2d_72">
    <defs>
     <path d="M -3 3 
L 3 3 
L 3 -3 
L -3 -3 
z
" id="m98830bf796" style="stroke:#008000;stroke-linejoin:miter;"/>
    </defs>
    <g clip-path="url(#p41c4883b14)">
     <use style="fill-opacity:0;stroke:#008000;stroke-linejoin:miter;" x="88.051765" xlink:href="#m98830bf796" y="199.448918"/>
    </g>
   </g>
   <g id="line2d_73">
    <defs>
     <path d="M -3 3 
L 3 3 
L 3 -3 
L -3 -3 
z
" id="m3319e87044" style="stroke:#0000ff;stroke-linejoin:miter;"/>
    </defs>
    <g clip-path="url(#p41c4883b14)">
     <use style="fill-opacity:0;stroke:#0000ff;stroke-linejoin:miter;" x="93.032471" xlink:href="#m3319e87044" y="187.827374"/>
    </g>
   </g>
   <g id="line2d_74">
    <g clip-path="url(#p41c4883b14)">
     <use style="fill-opacity:0;stroke:#ff0000;stroke-linejoin:miter;" x="107.974588" xlink:href="#mb18d794679" y="72.951689"/>
    </g>
   </g>
   <g id="line2d_75">
    <g clip-path="url(#p41c4883b14)">
     <use style="fill-opacity:0;stroke:#008000;stroke-linejoin:miter;" x="112.955294" xlink:href="#m98830bf796" y="223.617157"/>
    </g>
   </g>
   <g id="line2d_76">
    <g clip-path="url(#p41c4883b14)">
     <use style="fill-opacity:0;stroke:#0000ff;stroke-linejoin:miter;" x="117.936" xlink:href="#m3319e87044" y="198.677688"/>
    </g>
   </g>
   <g id="line2d_77">
    <g clip-path="url(#p41c4883b14)">
     <use style="fill-opacity:0;stroke:#ff0000;stroke-linejoin:miter;" x="132.878118" xlink:href="#mb18d794679" y="102.06468"/>
    </g>
   </g>
   <g id="line2d_78">
    <g clip-path="url(#p41c4883b14)">
     <use style="fill-opacity:0;stroke:#008000;stroke-linejoin:miter;" x="137.858824" xlink:href="#m98830bf796" y="168.283275"/>
    </g>
   </g>
   <g id="line2d_79">
    <g clip-path="url(#p41c4883b14)">
     <use style="fill-opacity:0;stroke:#0000ff;stroke-linejoin:miter;" x="142.839529" xlink:href="#m3319e87044" y="170.662223"/>
    </g>
   </g>
   <g id="line2d_80">
    <defs>
     <path d="M -3 3 
L 3 3 
L 3 -3 
L -3 -3 
z
" id="mea8030028f" style="stroke:#ff0000;stroke-linejoin:miter;"/>
    </defs>
    <g clip-path="url(#p41c4883b14)">
     <use style="fill:#ff0000;stroke:#ff0000;stroke-linejoin:miter;" x="157.781647" xlink:href="#mea8030028f" y="127.996005"/>
    </g>
   </g>
   <g id="line2d_81">
    <g clip-path="url(#p41c4883b14)">
     <use style="fill-opacity:0;stroke:#008000;stroke-linejoin:miter;" x="162.762353" xlink:href="#m98830bf796" y="131.165061"/>
    </g>
   </g>
   <g id="line2d_82">
    <g clip-path="url(#p41c4883b14)">
     <use style="fill-opacity:0;stroke:#0000ff;stroke-linejoin:miter;" x="167.743059" xlink:href="#m3319e87044" y="133.473955"/>
    </g>
   </g>
   <g id="line2d_83">
    <g clip-path="url(#p41c4883b14)">
     <use style="fill-opacity:0;stroke:#ff0000;stroke-linejoin:miter;" x="182.685176" xlink:href="#mb18d794679" y="112.850584"/>
    </g>
   </g>
   <g id="line2d_84">
    <g clip-path="url(#p41c4883b14)">
     <use style="fill-opacity:0;stroke:#008000;stroke-linejoin:miter;" x="187.665882" xlink:href="#m98830bf796" y="128.423975"/>
    </g>
   </g>
   <g id="line2d_85">
    <g clip-path="url(#p41c4883b14)">
     <use style="fill-opacity:0;stroke:#0000ff;stroke-linejoin:miter;" x="192.646588" xlink:href="#m3319e87044" y="138.774809"/>
    </g>
   </g>
   <g id="line2d_86">
    <g clip-path="url(#p41c4883b14)">
     <use style="fill-opacity:0;stroke:#ff0000;stroke-linejoin:miter;" x="207.588706" xlink:href="#mb18d794679" y="105.479995"/>
    </g>
   </g>
   <g id="line2d_87">
    <g clip-path="url(#p41c4883b14)">
     <use style="fill-opacity:0;stroke:#008000;stroke-linejoin:miter;" x="212.569412" xlink:href="#m98830bf796" y="129.277464"/>
    </g>
   </g>
   <g id="line2d_88">
    <g clip-path="url(#p41c4883b14)">
     <use style="fill-opacity:0;stroke:#0000ff;stroke-linejoin:miter;" x="217.550118" xlink:href="#m3319e87044" y="141.780377"/>
    </g>
   </g>
   <g id="line2d_89">
    <g clip-path="url(#p41c4883b14)">
     <use style="fill-opacity:0;stroke:#ff0000;stroke-linejoin:miter;" x="232.492235" xlink:href="#mb18d794679" y="104.167629"/>
    </g>
   </g>
   <g id="line2d_90">
    <g clip-path="url(#p41c4883b14)">
     <use style="fill-opacity:0;stroke:#008000;stroke-linejoin:miter;" x="237.472941" xlink:href="#m98830bf796" y="127.102423"/>
    </g>
   </g>
   <g id="line2d_91">
    <g clip-path="url(#p41c4883b14)">
     <use style="fill-opacity:0;stroke:#0000ff;stroke-linejoin:miter;" x="242.453647" xlink:href="#m3319e87044" y="136.806299"/>
    </g>
   </g>
   <g id="line2d_92">
    <g clip-path="url(#p41c4883b14)">
     <use style="fill-opacity:0;stroke:#ff0000;stroke-linejoin:miter;" x="257.395765" xlink:href="#mb18d794679" y="104.462723"/>
    </g>
   </g>
   <g id="line2d_93">
    <g clip-path="url(#p41c4883b14)">
     <use style="fill-opacity:0;stroke:#008000;stroke-linejoin:miter;" x="262.376471" xlink:href="#m98830bf796" y="132.58178"/>
    </g>
   </g>
   <g id="line2d_94">
    <g clip-path="url(#p41c4883b14)">
     <use style="fill-opacity:0;stroke:#0000ff;stroke-linejoin:miter;" x="267.357176" xlink:href="#m3319e87044" y="153.247055"/>
    </g>
   </g>
   <g id="line2d_95">
    <g clip-path="url(#p41c4883b14)">
     <use style="fill-opacity:0;stroke:#ff0000;stroke-linejoin:miter;" x="282.299294" xlink:href="#mb18d794679" y="116.199811"/>
    </g>
   </g>
   <g id="line2d_96">
    <g clip-path="url(#p41c4883b14)">
     <use style="fill-opacity:0;stroke:#008000;stroke-linejoin:miter;" x="287.28" xlink:href="#m98830bf796" y="131.113435"/>
    </g>
   </g>
   <g id="line2d_97">
    <g clip-path="url(#p41c4883b14)">
     <use style="fill-opacity:0;stroke:#0000ff;stroke-linejoin:miter;" x="292.260706" xlink:href="#m3319e87044" y="102.06468"/>
    </g>
   </g>
   <g id="line2d_98">
    <defs>
     <path d="M 0 3 
C 0.795609 3 1.55874 2.683901 2.12132 2.12132 
C 2.683901 1.55874 3 0.795609 3 0 
C 3 -0.795609 2.683901 -1.55874 2.12132 -2.12132 
C 1.55874 -2.683901 0.795609 -3 0 -3 
C -0.795609 -3 -1.55874 -2.683901 -2.12132 -2.12132 
C -2.683901 -1.55874 -3 -0.795609 -3 0 
C -3 0.795609 -2.683901 1.55874 -2.12132 2.12132 
C -1.55874 2.683901 -0.795609 3 0 3 
z
" id="m65ec3ec890" style="stroke:#000000;"/>
    </defs>
    <g clip-path="url(#p41c4883b14)">
     <use style="stroke:#000000;" x="109.631166" xlink:href="#m65ec3ec890" y="-1"/>
     <use style="stroke:#000000;" x="112.955294" xlink:href="#m65ec3ec890" y="0.918455"/>
     <use style="stroke:#000000;" x="137.858824" xlink:href="#m65ec3ec890" y="24.368848"/>
     <use style="stroke:#000000;" x="162.762353" xlink:href="#m65ec3ec890" y="53.468564"/>
     <use style="stroke:#000000;" x="187.665882" xlink:href="#m65ec3ec890" y="57.092897"/>
     <use style="stroke:#000000;" x="212.569412" xlink:href="#m65ec3ec890" y="78.960802"/>
     <use style="stroke:#000000;" x="237.472941" xlink:href="#m65ec3ec890" y="95.244623"/>
     <use style="stroke:#000000;" x="262.376471" xlink:href="#m65ec3ec890" y="114.091868"/>
     <use style="stroke:#000000;" x="287.28" xlink:href="#m65ec3ec890" y="102.132351"/>
     <use style="stroke:#000000;" x="312.183529" xlink:href="#m65ec3ec890" y="114.289397"/>
     <use style="stroke:#000000;" x="337.087059" xlink:href="#m65ec3ec890" y="109.984225"/>
     <use style="stroke:#000000;" x="361.990588" xlink:href="#m65ec3ec890" y="24.815682"/>
     <use style="stroke:#000000;" x="386.894118" xlink:href="#m65ec3ec890" y="135.002747"/>
     <use style="stroke:#000000;" x="409.848678" xlink:href="#m65ec3ec890" y="-1"/>
     <use style="stroke:#000000;" x="414.668119" xlink:href="#m65ec3ec890" y="-1"/>
     <use style="stroke:#000000;" x="436.701176" xlink:href="#m65ec3ec890" y="87.634974"/>
     <use style="stroke:#000000;" x="445.550841" xlink:href="#m65ec3ec890" y="-1"/>
     <use style="stroke:#000000;" x="470.219156" xlink:href="#m65ec3ec890" y="-1"/>
     <use style="stroke:#000000;" x="486.508235" xlink:href="#m65ec3ec890" y="303.037335"/>
     <use style="stroke:#000000;" x="499.636692" xlink:href="#m65ec3ec890" y="-1"/>
     <use style="stroke:#000000;" x="570.672144" xlink:href="#m65ec3ec890" y="-1"/>
     <use style="stroke:#000000;" x="586.122353" xlink:href="#m65ec3ec890" y="7213.689639"/>
     <use style="stroke:#000000;" x="611.025882" xlink:href="#m65ec3ec890" y="7735.925649"/>
     <use style="stroke:#000000;" x="618.606777" xlink:href="#m65ec3ec890" y="-1"/>
     <use style="stroke:#000000;" x="651.483283" xlink:href="#m65ec3ec890" y="-1"/>
     <use style="stroke:#000000;" x="660.832941" xlink:href="#m65ec3ec890" y="10626.208162"/>
    </g>
   </g>
   <g id="patch_6">
    <path d="M 75.6 169.92 
L 75.6 2.88 
" style="fill:none;stroke:#000000;stroke-linecap:square;stroke-linejoin:miter;stroke-width:0.8;"/>
   </g>
   <g id="patch_7">
    <path d="M 498.96 169.92 
L 498.96 2.88 
" style="fill:none;stroke:#000000;stroke-linecap:square;stroke-linejoin:miter;stroke-width:0.8;"/>
   </g>
   <g id="patch_8">
    <path d="M 75.6 169.92 
L 498.96 169.92 
" style="fill:none;stroke:#000000;stroke-linecap:square;stroke-linejoin:miter;stroke-width:0.8;"/>
   </g>
   <g id="patch_9">
    <path d="M 75.6 2.88 
L 498.96 2.88 
" style="fill:none;stroke:#000000;stroke-linecap:square;stroke-linejoin:miter;stroke-width:0.8;"/>
   </g>
   <g id="legend_1">
    <g id="patch_10">
     <path d="M 240.541734 37.979476 
L 487.76 37.979476 
Q 490.96 37.979476 490.96 34.779476 
L 490.96 14.08 
Q 490.96 10.88 487.76 10.88 
L 240.541734 10.88 
Q 237.341734 10.88 237.341734 14.08 
L 237.341734 34.779476 
Q 237.341734 37.979476 240.541734 37.979476 
z
" style="fill:#ffffff;opacity:0.8;stroke:#cccccc;stroke-linejoin:miter;"/>
    </g>
    <g id="LineCollection_29">
     <path d="M 259.741734 30.88 
L 259.741734 14.88 
" style="fill:none;stroke:#ff0000;stroke-width:1.5;"/>
    </g>
    <g id="line2d_99">
     <g>
      <use style="fill:#ff0000;stroke:#ff0000;" x="259.741734" xlink:href="#m42d5523371" y="30.88"/>
     </g>
    </g>
    <g id="line2d_100">
     <g>
      <use style="fill:#ff0000;stroke:#ff0000;" x="259.741734" xlink:href="#m42d5523371" y="14.88"/>
     </g>
    </g>
    <g id="line2d_101"/>
    <g id="line2d_102">
     <g>
      <use style="fill-opacity:0;stroke:#ff0000;stroke-linejoin:miter;" x="259.741734" xlink:href="#mb18d794679" y="22.88"/>
     </g>
    </g>
    <g id="text_7">
     <!-- $n_{\rm el}=0$ -->
     <defs>
      <path d="M 20.59375 29.234375 
C 20.796875 29.84375 23.296875 34.828125 27 38.015625 
C 29.59375 40.40625 33 42.015625 36.90625 42.015625 
C 40.90625 42.015625 42.296875 39.015625 42.296875 35.03125 
C 42.296875 29.34375 38.203125 17.96875 36.203125 12.578125 
C 35.296875 10.171875 34.796875 8.875 34.796875 7.078125 
C 34.796875 2.59375 37.90625 -1 42.703125 -1 
C 52 -1 55.5 13.671875 55.5 14.265625 
C 55.5 14.765625 55.09375 15.171875 54.5 15.171875 
C 53.59375 15.171875 53.5 14.875 53 13.171875 
C 50.703125 4.984375 46.90625 1 43 1 
C 42 1 40.40625 1 40.40625 4.203125 
C 40.40625 6.703125 41.5 9.703125 42.09375 11.09375 
C 44.09375 16.609375 48.296875 27.8125 48.296875 33.515625 
C 48.296875 39.5 44.796875 44 37.203125 44 
C 28.296875 44 23.59375 37.734375 21.796875 35.234375 
C 21.5 40.90625 17.40625 44 13 44 
C 9.796875 44 7.59375 42.109375 5.90625 38.71875 
C 4.09375 35.125 2.703125 29.140625 2.703125 28.734375 
C 2.703125 28.34375 3.09375 27.84375 3.796875 27.84375 
C 4.59375 27.84375 4.703125 27.9375 5.296875 30.234375 
C 6.90625 36.328125 8.703125 42.015625 12.703125 42.015625 
C 15 42.015625 15.796875 40.40625 15.796875 37.421875 
C 15.796875 35.21875 14.796875 31.328125 14.09375 28.234375 
L 11.296875 17.46875 
C 10.90625 15.5625 9.796875 11.078125 9.296875 9.28125 
C 8.59375 6.6875 7.5 2 7.5 1.5 
C 7.5 0.09375 8.59375 -1 10.09375 -1 
C 11.296875 -1 12.703125 -0.40625 13.5 1.09375 
C 13.703125 1.59375 14.59375 5.09375 15.09375 7.078125 
L 17.296875 16.0625 
z
" id="CMMI12-110"/>
      <path d="M 38.09375 23 
C 38.5 23.40625 38.5 23.609375 38.5 24.625 
C 38.5 34.96875 33.09375 44 21.703125 44 
C 11.09375 44 2.703125 33.890625 2.703125 21.609375 
C 2.703125 8.609375 12.203125 -1 22.796875 -1 
C 34 -1 38.40625 9.484375 38.40625 11.5625 
C 38.40625 12.25 37.796875 12.25 37.59375 12.25 
C 36.90625 12.25 36.796875 12.046875 36.40625 10.875 
C 34.203125 4.140625 28.703125 0.796875 23.5 0.796875 
C 19.203125 0.796875 14.90625 3.171875 12.203125 7.5 
C 9.09375 12.546875 9.09375 18.375 9.09375 23 
z
M 9.203125 24.5 
C 9.90625 39.140625 17.59375 42.40625 21.59375 42.40625 
C 28.40625 42.40625 33 35.890625 33.09375 24.5 
z
" id="CMR17-101"/>
      <path d="M 15.296875 68.6875 
L 3.40625 67.59375 
L 3.40625 65 
C 9.296875 65 10.203125 64.40625 10.203125 59.640625 
L 10.203125 6.65625 
C 10.203125 2.875 9.796875 2.390625 3.40625 2.390625 
L 3.40625 -0.203125 
C 5.796875 0 10.203125 0 12.703125 0 
C 15.296875 0 19.703125 0 22.09375 -0.203125 
L 22.09375 2.390625 
C 15.703125 2.390625 15.296875 2.78125 15.296875 6.65625 
z
" id="CMR17-108"/>
      <path d="M 64.296875 31.515625 
C 65.796875 31.515625 67.296875 31.515625 67.296875 33.203125 
C 67.296875 35 65.59375 35 63.90625 35 
L 8 35 
C 6.296875 35 4.59375 35 4.59375 33.203125 
C 4.59375 31.515625 6.09375 31.515625 7.59375 31.515625 
z
M 63.90625 14 
C 65.59375 14 67.296875 14 67.296875 15.796875 
C 67.296875 17.484375 65.796875 17.484375 64.296875 17.484375 
L 7.59375 17.484375 
C 6.09375 17.484375 4.59375 17.484375 4.59375 15.796875 
C 4.59375 14 6.296875 14 8 14 
z
" id="CMR17-61"/>
     </defs>
     <g transform="translate(277.341734 28.48)scale(0.16 -0.16)">
      <use transform="translate(0 14.943915)scale(0.996264)" xlink:href="#CMMI12-110"/>
      <use transform="translate(58.230047 0)scale(0.697382)" xlink:href="#CMR17-101"/>
      <use transform="translate(86.569879 0)scale(0.697382)" xlink:href="#CMR17-108"/>
      <use transform="translate(132.151679 14.943915)scale(0.996264)" xlink:href="#CMR17-61"/>
      <use transform="translate(231.540476 14.943915)scale(0.996264)" xlink:href="#CMR17-48"/>
     </g>
    </g>
    <g id="LineCollection_30">
     <path d="M 340.014489 30.88 
L 340.014489 14.88 
" style="fill:none;stroke:#008000;stroke-width:1.5;"/>
    </g>
    <g id="line2d_103">
     <g>
      <use style="fill:#008000;stroke:#008000;" x="340.014489" xlink:href="#mfbc9a62855" y="30.88"/>
     </g>
    </g>
    <g id="line2d_104">
     <g>
      <use style="fill:#008000;stroke:#008000;" x="340.014489" xlink:href="#mfbc9a62855" y="14.88"/>
     </g>
    </g>
    <g id="line2d_105"/>
    <g id="line2d_106">
     <g>
      <use style="fill-opacity:0;stroke:#008000;stroke-linejoin:miter;" x="340.014489" xlink:href="#m98830bf796" y="22.88"/>
     </g>
    </g>
    <g id="text_8">
     <!-- $n_{\rm el}=1$ -->
     <g transform="translate(357.614489 28.48)scale(0.16 -0.16)">
      <use transform="translate(0 14.943915)scale(0.996264)" xlink:href="#CMMI12-110"/>
      <use transform="translate(58.230047 0)scale(0.697382)" xlink:href="#CMR17-101"/>
      <use transform="translate(86.569879 0)scale(0.697382)" xlink:href="#CMR17-108"/>
      <use transform="translate(132.151679 14.943915)scale(0.996264)" xlink:href="#CMR17-61"/>
      <use transform="translate(231.540476 14.943915)scale(0.996264)" xlink:href="#CMR17-49"/>
     </g>
    </g>
    <g id="LineCollection_31">
     <path d="M 420.287245 30.88 
L 420.287245 14.88 
" style="fill:none;stroke:#0000ff;stroke-width:1.5;"/>
    </g>
    <g id="line2d_107">
     <g>
      <use style="fill:#0000ff;stroke:#0000ff;" x="420.287245" xlink:href="#m74bccee1ab" y="30.88"/>
     </g>
    </g>
    <g id="line2d_108">
     <g>
      <use style="fill:#0000ff;stroke:#0000ff;" x="420.287245" xlink:href="#m74bccee1ab" y="14.88"/>
     </g>
    </g>
    <g id="line2d_109"/>
    <g id="line2d_110">
     <g>
      <use style="fill-opacity:0;stroke:#0000ff;stroke-linejoin:miter;" x="420.287245" xlink:href="#m3319e87044" y="22.88"/>
     </g>
    </g>
    <g id="text_9">
     <!-- $n_{\rm el}=2$ -->
     <g transform="translate(437.887245 28.48)scale(0.16 -0.16)">
      <use transform="translate(0 14.943915)scale(0.996264)" xlink:href="#CMMI12-110"/>
      <use transform="translate(58.230047 0)scale(0.697382)" xlink:href="#CMR17-101"/>
      <use transform="translate(86.569879 0)scale(0.697382)" xlink:href="#CMR17-108"/>
      <use transform="translate(132.151679 14.943915)scale(0.996264)" xlink:href="#CMR17-61"/>
      <use transform="translate(231.540476 14.943915)scale(0.996264)" xlink:href="#CMR17-50"/>
     </g>
    </g>
   </g>
  </g>
  <g id="axes_2">
   <g id="patch_11">
    <path d="M 75.6 213.12 
L 498.96 213.12 
L 498.96 169.92 
L 75.6 169.92 
z
" style="fill:none;"/>
   </g>
   <g id="matplotlib.axis_3">
    <g id="xtick_10">
     <g id="line2d_111">
      <g>
       <use style="stroke:#000000;stroke-width:0.8;" x="88.051765" xlink:href="#m61a48240ca" y="213.12"/>
      </g>
     </g>
    </g>
    <g id="xtick_11">
     <g id="line2d_112">
      <g>
       <use style="stroke:#000000;stroke-width:0.8;" x="137.858824" xlink:href="#m61a48240ca" y="213.12"/>
      </g>
     </g>
    </g>
    <g id="xtick_12">
     <g id="line2d_113">
      <g>
       <use style="stroke:#000000;stroke-width:0.8;" x="187.665882" xlink:href="#m61a48240ca" y="213.12"/>
      </g>
     </g>
    </g>
    <g id="xtick_13">
     <g id="line2d_114">
      <g>
       <use style="stroke:#000000;stroke-width:0.8;" x="237.472941" xlink:href="#m61a48240ca" y="213.12"/>
      </g>
     </g>
    </g>
    <g id="xtick_14">
     <g id="line2d_115">
      <g>
       <use style="stroke:#000000;stroke-width:0.8;" x="287.28" xlink:href="#m61a48240ca" y="213.12"/>
      </g>
     </g>
    </g>
    <g id="xtick_15">
     <g id="line2d_116">
      <g>
       <use style="stroke:#000000;stroke-width:0.8;" x="337.087059" xlink:href="#m61a48240ca" y="213.12"/>
      </g>
     </g>
    </g>
    <g id="xtick_16">
     <g id="line2d_117">
      <g>
       <use style="stroke:#000000;stroke-width:0.8;" x="386.894118" xlink:href="#m61a48240ca" y="213.12"/>
      </g>
     </g>
    </g>
    <g id="xtick_17">
     <g id="line2d_118">
      <g>
       <use style="stroke:#000000;stroke-width:0.8;" x="436.701176" xlink:href="#m61a48240ca" y="213.12"/>
      </g>
     </g>
    </g>
    <g id="xtick_18">
     <g id="line2d_119">
      <g>
       <use style="stroke:#000000;stroke-width:0.8;" x="486.508235" xlink:href="#m61a48240ca" y="213.12"/>
      </g>
     </g>
    </g>
   </g>
   <g id="matplotlib.axis_4">
    <g id="ytick_6">
     <g id="line2d_120">
      <g>
       <use style="stroke:#000000;stroke-width:0.8;" x="75.6" xlink:href="#m7f2eb24ed3" y="213.12"/>
      </g>
     </g>
     <g id="text_10">
      <!-- $0.00$ -->
      <g transform="translate(52.638586 216.579249)scale(0.1 -0.1)">
       <use transform="scale(0.996264)" xlink:href="#CMR17-48"/>
       <use transform="translate(45.690477 0)scale(0.996264)" xlink:href="#CMMI12-58"/>
       <use transform="translate(72.787654 0)scale(0.996264)" xlink:href="#CMR17-48"/>
       <use transform="translate(118.478131 0)scale(0.996264)" xlink:href="#CMR17-48"/>
      </g>
     </g>
    </g>
    <g id="ytick_7">
     <g id="line2d_121">
      <g>
       <use style="stroke:#000000;stroke-width:0.8;" x="75.6" xlink:href="#m7f2eb24ed3" y="199.542857"/>
      </g>
     </g>
     <g id="text_11">
      <!-- $0.33$ -->
      <g transform="translate(52.638586 203.002106)scale(0.1 -0.1)">
       <use transform="scale(0.996264)" xlink:href="#CMR17-48"/>
       <use transform="translate(45.690477 0)scale(0.996264)" xlink:href="#CMMI12-58"/>
       <use transform="translate(72.787654 0)scale(0.996264)" xlink:href="#CMR17-51"/>
       <use transform="translate(118.478131 0)scale(0.996264)" xlink:href="#CMR17-51"/>
      </g>
     </g>
    </g>
    <g id="ytick_8">
     <g id="line2d_122">
      <g>
       <use style="stroke:#000000;stroke-width:0.8;" x="75.6" xlink:href="#m7f2eb24ed3" y="185.554286"/>
      </g>
     </g>
     <g id="text_12">
      <!-- $0.67$ -->
      <defs>
       <path d="M 10.59375 34 
C 10.59375 57.65625 21.796875 63 28.296875 63 
C 30.40625 63 35.5 62.640625 37.5 59 
C 35.90625 59 32.90625 59 32.90625 55.515625 
C 32.90625 52.828125 35.09375 51.921875 36.5 51.921875 
C 37.40625 51.921875 40.09375 52.3125 40.09375 55.625 
C 40.09375 61.78125 35.09375 65.296875 28.203125 65.296875 
C 16.296875 65.296875 3.796875 52.96875 3.796875 31 
C 3.796875 3.953125 15.09375 -2 23.09375 -2 
C 32.796875 -2 42 6.671875 42 20.046875 
C 42 32.515625 33.90625 41.59375 23.703125 41.59375 
C 17.59375 41.59375 13.09375 37.609375 10.59375 30.625 
z
M 23.09375 0.390625 
C 10.796875 0.390625 10.796875 18.75 10.796875 22.4375 
C 10.796875 29.625 14.203125 40 23.5 40 
C 25.203125 40 30.09375 40 33.40625 33.125 
C 35.203125 29.21875 35.203125 25.140625 35.203125 20.140625 
C 35.203125 14.75 35.203125 10.78125 33.09375 6.78125 
C 30.90625 2.671875 27.703125 0.390625 23.09375 0.390625 
z
" id="CMR17-54"/>
       <path d="M 45.09375 61.578125 
L 45.09375 63.765625 
L 21.59375 63.765625 
C 9.90625 63.765625 9.703125 65.078125 9.296875 67 
L 7.5 67 
L 4.59375 48.34375 
L 6.40625 48.34375 
C 6.703125 50.234375 7.40625 55.3125 8.59375 57.203125 
C 9.203125 58 16.59375 58 18.296875 58 
L 40.296875 58 
L 29.203125 41.578125 
C 21.796875 30.53125 16.703125 15.609375 16.703125 2.578125 
C 16.703125 1.390625 16.703125 -2 20.296875 -2 
C 23.90625 -2 23.90625 1.390625 23.90625 2.671875 
L 23.90625 7.265625 
C 23.90625 23.5625 26.703125 34.3125 31.296875 41.1875 
z
" id="CMR17-55"/>
      </defs>
      <g transform="translate(52.638586 189.013535)scale(0.1 -0.1)">
       <use transform="scale(0.996264)" xlink:href="#CMR17-48"/>
       <use transform="translate(45.690477 0)scale(0.996264)" xlink:href="#CMMI12-58"/>
       <use transform="translate(72.787654 0)scale(0.996264)" xlink:href="#CMR17-54"/>
       <use transform="translate(118.478131 0)scale(0.996264)" xlink:href="#CMR17-55"/>
      </g>
     </g>
    </g>
    <g id="text_13">
     <!-- $Q$ -->
     <defs>
      <path d="M 42.59375 0.703125 
C 59.796875 7.65625 72.59375 25.984375 72.59375 44.203125 
C 72.59375 60.828125 61.796875 71 47.796875 71 
C 26.40625 71 4.796875 47.84375 4.796875 24.578125 
C 4.796875 8.765625 15.203125 -2 29.703125 -2 
C 33.09375 -2 36.40625 -1.5 39.59375 -0.515625 
C 39 -6.421875 39 -6.90625 39 -8.78125 
C 39 -11.625 39 -19 47 -19 
C 58.90625 -19 63.296875 -0.578125 63.296875 0.03125 
C 63.296875 0.609375 62.90625 1 62.40625 1 
C 61.796875 1 61.59375 0.53125 61.296875 -0.5625 
C 59.09375 -6.703125 53.90625 -10.21875 49.5 -10.21875 
C 44.40625 -10.21875 43.09375 -6.796875 42.59375 0.703125 
z
M 24.59375 1.203125 
C 16.703125 3.9375 12.90625 12.296875 12.90625 21.546875 
C 12.90625 28.609375 15.5 42.015625 22.09375 52.1875 
C 29.5 63.671875 39.40625 68.8125 47.203125 68.8125 
C 57.59375 68.8125 64.59375 60.34375 64.59375 47.25 
C 64.59375 39.796875 61.09375 14.8125 42.296875 3.75 
C 41.796875 8.921875 40.40625 15 33.796875 15 
C 28.40625 15 23.796875 9.515625 23.796875 4.546875 
C 23.796875 3.4375 24.203125 1.921875 24.59375 1.203125 
z
M 39.796875 2.4375 
C 36.203125 0.8125 33.09375 0.1875 30.296875 0.1875 
C 29.296875 0.1875 25.796875 0.1875 25.796875 4.65625 
C 25.796875 8.328125 29.296875 13 33.796875 13 
C 38.796875 13 39.90625 9.546875 39.90625 4.46875 
C 39.90625 3.84375 39.90625 3.03125 39.796875 2.4375 
z
" id="CMMI12-81"/>
     </defs>
     <g transform="translate(44.762952 199.24604)rotate(-90)scale(0.2 -0.2)">
      <use transform="scale(0.996264)" xlink:href="#CMMI12-81"/>
     </g>
    </g>
   </g>
   <g id="line2d_123">
    <g clip-path="url(#pfafc35b3de)">
     <use style="fill-opacity:0;stroke:#ff0000;stroke-linejoin:miter;" x="83.071059" xlink:href="#mb18d794679" y="210.20894"/>
    </g>
   </g>
   <g id="line2d_124">
    <g clip-path="url(#pfafc35b3de)">
     <use style="fill-opacity:0;stroke:#008000;stroke-linejoin:miter;" x="88.051765" xlink:href="#m98830bf796" y="179.047102"/>
    </g>
   </g>
   <g id="line2d_125">
    <g clip-path="url(#pfafc35b3de)">
     <use style="fill-opacity:0;stroke:#0000ff;stroke-linejoin:miter;" x="93.032471" xlink:href="#m3319e87044" y="176.030076"/>
    </g>
   </g>
   <g id="line2d_126">
    <g clip-path="url(#pfafc35b3de)">
     <use style="fill-opacity:0;stroke:#ff0000;stroke-linejoin:miter;" x="107.974588" xlink:href="#mb18d794679" y="186.548388"/>
    </g>
   </g>
   <g id="line2d_127">
    <g clip-path="url(#pfafc35b3de)">
     <use style="fill-opacity:0;stroke:#008000;stroke-linejoin:miter;" x="112.955294" xlink:href="#m98830bf796" y="175.939872"/>
    </g>
   </g>
   <g id="line2d_128">
    <g clip-path="url(#pfafc35b3de)">
     <use style="fill-opacity:0;stroke:#0000ff;stroke-linejoin:miter;" x="117.936" xlink:href="#m3319e87044" y="174.749084"/>
    </g>
   </g>
   <g id="line2d_129">
    <g clip-path="url(#pfafc35b3de)">
     <use style="fill-opacity:0;stroke:#ff0000;stroke-linejoin:miter;" x="132.878118" xlink:href="#mb18d794679" y="173.686121"/>
    </g>
   </g>
   <g id="line2d_130">
    <g clip-path="url(#pfafc35b3de)">
     <use style="fill-opacity:0;stroke:#008000;stroke-linejoin:miter;" x="137.858824" xlink:href="#m98830bf796" y="173.868651"/>
    </g>
   </g>
   <g id="line2d_131">
    <g clip-path="url(#pfafc35b3de)">
     <use style="fill-opacity:0;stroke:#0000ff;stroke-linejoin:miter;" x="142.839529" xlink:href="#m3319e87044" y="174.221742"/>
    </g>
   </g>
   <g id="line2d_132">
    <g clip-path="url(#pfafc35b3de)">
     <use style="fill-opacity:0;stroke:#ff0000;stroke-linejoin:miter;" x="157.781647" xlink:href="#mb18d794679" y="172.367444"/>
    </g>
   </g>
   <g id="line2d_133">
    <g clip-path="url(#pfafc35b3de)">
     <use style="fill-opacity:0;stroke:#008000;stroke-linejoin:miter;" x="162.762353" xlink:href="#m98830bf796" y="172.627203"/>
    </g>
   </g>
   <g id="line2d_134">
    <g clip-path="url(#pfafc35b3de)">
     <use style="fill-opacity:0;stroke:#0000ff;stroke-linejoin:miter;" x="167.743059" xlink:href="#m3319e87044" y="173.089652"/>
    </g>
   </g>
   <g id="line2d_135">
    <g clip-path="url(#pfafc35b3de)">
     <use style="fill-opacity:0;stroke:#ff0000;stroke-linejoin:miter;" x="182.685176" xlink:href="#mb18d794679" y="172.34324"/>
    </g>
   </g>
   <g id="line2d_136">
    <g clip-path="url(#pfafc35b3de)">
     <use style="fill-opacity:0;stroke:#008000;stroke-linejoin:miter;" x="187.665882" xlink:href="#m98830bf796" y="172.56357"/>
    </g>
   </g>
   <g id="line2d_137">
    <g clip-path="url(#pfafc35b3de)">
     <use style="fill-opacity:0;stroke:#0000ff;stroke-linejoin:miter;" x="192.646588" xlink:href="#m3319e87044" y="172.927481"/>
    </g>
   </g>
   <g id="line2d_138">
    <g clip-path="url(#pfafc35b3de)">
     <use style="fill-opacity:0;stroke:#ff0000;stroke-linejoin:miter;" x="207.588706" xlink:href="#mb18d794679" y="172.45666"/>
    </g>
   </g>
   <g id="line2d_139">
    <g clip-path="url(#pfafc35b3de)">
     <use style="fill-opacity:0;stroke:#008000;stroke-linejoin:miter;" x="212.569412" xlink:href="#m98830bf796" y="172.69585"/>
    </g>
   </g>
   <g id="line2d_140">
    <g clip-path="url(#pfafc35b3de)">
     <use style="fill-opacity:0;stroke:#0000ff;stroke-linejoin:miter;" x="217.550118" xlink:href="#m3319e87044" y="173.043376"/>
    </g>
   </g>
   <g id="line2d_141">
    <g clip-path="url(#pfafc35b3de)">
     <use style="fill-opacity:0;stroke:#ff0000;stroke-linejoin:miter;" x="232.492235" xlink:href="#mb18d794679" y="172.631552"/>
    </g>
   </g>
   <g id="line2d_142">
    <g clip-path="url(#pfafc35b3de)">
     <use style="fill-opacity:0;stroke:#008000;stroke-linejoin:miter;" x="237.472941" xlink:href="#m98830bf796" y="172.92822"/>
    </g>
   </g>
   <g id="line2d_143">
    <g clip-path="url(#pfafc35b3de)">
     <use style="fill-opacity:0;stroke:#0000ff;stroke-linejoin:miter;" x="242.453647" xlink:href="#m3319e87044" y="173.352379"/>
    </g>
   </g>
   <g id="line2d_144">
    <g clip-path="url(#pfafc35b3de)">
     <use style="fill-opacity:0;stroke:#ff0000;stroke-linejoin:miter;" x="257.395765" xlink:href="#mb18d794679" y="172.830878"/>
    </g>
   </g>
   <g id="line2d_145">
    <g clip-path="url(#pfafc35b3de)">
     <use style="fill-opacity:0;stroke:#008000;stroke-linejoin:miter;" x="262.376471" xlink:href="#m98830bf796" y="173.192302"/>
    </g>
   </g>
   <g id="line2d_146">
    <g clip-path="url(#pfafc35b3de)">
     <use style="fill-opacity:0;stroke:#0000ff;stroke-linejoin:miter;" x="267.357176" xlink:href="#m3319e87044" y="173.635426"/>
    </g>
   </g>
   <g id="line2d_147">
    <g clip-path="url(#pfafc35b3de)">
     <use style="fill-opacity:0;stroke:#ff0000;stroke-linejoin:miter;" x="282.299294" xlink:href="#mb18d794679" y="173.025259"/>
    </g>
   </g>
   <g id="line2d_148">
    <g clip-path="url(#pfafc35b3de)">
     <use style="fill-opacity:0;stroke:#008000;stroke-linejoin:miter;" x="287.28" xlink:href="#m98830bf796" y="173.511486"/>
    </g>
   </g>
   <g id="line2d_149">
    <g clip-path="url(#pfafc35b3de)">
     <use style="fill-opacity:0;stroke:#0000ff;stroke-linejoin:miter;" x="292.260706" xlink:href="#m3319e87044" y="173.686121"/>
    </g>
   </g>
   <g id="patch_12">
    <path d="M 75.6 213.12 
L 75.6 169.92 
" style="fill:none;stroke:#000000;stroke-linecap:square;stroke-linejoin:miter;stroke-width:0.8;"/>
   </g>
   <g id="patch_13">
    <path d="M 498.96 213.12 
L 498.96 169.92 
" style="fill:none;stroke:#000000;stroke-linecap:square;stroke-linejoin:miter;stroke-width:0.8;"/>
   </g>
   <g id="patch_14">
    <path d="M 75.6 213.12 
L 498.96 213.12 
" style="fill:none;stroke:#000000;stroke-linecap:square;stroke-linejoin:miter;stroke-width:0.8;"/>
   </g>
   <g id="patch_15">
    <path d="M 75.6 169.92 
L 498.96 169.92 
" style="fill:none;stroke:#000000;stroke-linecap:square;stroke-linejoin:miter;stroke-width:0.8;"/>
   </g>
  </g>
  <g id="axes_3">
   <g id="patch_16">
    <path d="M 75.6 256.32 
L 498.96 256.32 
L 498.96 213.12 
L 75.6 213.12 
z
" style="fill:none;"/>
   </g>
   <g id="matplotlib.axis_5">
    <g id="xtick_19">
     <g id="line2d_150">
      <g>
       <use style="stroke:#000000;stroke-width:0.8;" x="88.051765" xlink:href="#m61a48240ca" y="256.32"/>
      </g>
     </g>
     <g id="line2d_151">
      <g>
       <use style="stroke:#000000;stroke-width:0.8;" x="88.051765" xlink:href="#m61a48240ca" y="213.12"/>
      </g>
     </g>
     <g id="text_14">
      <!-- $2$ -->
      <g transform="translate(85.561097 268.488498)scale(0.1 -0.1)">
       <use transform="scale(0.996264)" xlink:href="#CMR17-50"/>
      </g>
     </g>
    </g>
    <g id="xtick_20">
     <g id="line2d_152">
      <g>
       <use style="stroke:#000000;stroke-width:0.8;" x="137.858824" xlink:href="#m61a48240ca" y="256.32"/>
      </g>
     </g>
     <g id="line2d_153">
      <g>
       <use style="stroke:#000000;stroke-width:0.8;" x="137.858824" xlink:href="#m61a48240ca" y="213.12"/>
      </g>
     </g>
     <g id="text_15">
      <!-- $4$ -->
      <g transform="translate(135.368156 268.488498)scale(0.1 -0.1)">
       <use transform="scale(0.996264)" xlink:href="#CMR17-52"/>
      </g>
     </g>
    </g>
    <g id="xtick_21">
     <g id="line2d_154">
      <g>
       <use style="stroke:#000000;stroke-width:0.8;" x="187.665882" xlink:href="#m61a48240ca" y="256.32"/>
      </g>
     </g>
     <g id="line2d_155">
      <g>
       <use style="stroke:#000000;stroke-width:0.8;" x="187.665882" xlink:href="#m61a48240ca" y="213.12"/>
      </g>
     </g>
     <g id="text_16">
      <!-- $6$ -->
      <g transform="translate(185.175215 268.488498)scale(0.1 -0.1)">
       <use transform="scale(0.996264)" xlink:href="#CMR17-54"/>
      </g>
     </g>
    </g>
    <g id="xtick_22">
     <g id="line2d_156">
      <g>
       <use style="stroke:#000000;stroke-width:0.8;" x="237.472941" xlink:href="#m61a48240ca" y="256.32"/>
      </g>
     </g>
     <g id="line2d_157">
      <g>
       <use style="stroke:#000000;stroke-width:0.8;" x="237.472941" xlink:href="#m61a48240ca" y="213.12"/>
      </g>
     </g>
     <g id="text_17">
      <!-- $8$ -->
      <defs>
       <path d="M 27.203125 35.375 
C 33.5 38.546875 39.90625 43.328125 39.90625 50.984375 
C 39.90625 60.015625 31.09375 65.296875 23 65.296875 
C 13.90625 65.296875 5.90625 58.734375 5.90625 49.6875 
C 5.90625 47.203125 6.5 42.921875 10.40625 39.140625 
C 11.40625 38.15625 15.59375 35.171875 18.296875 33.28125 
C 13.796875 30.984375 3.296875 25.53125 3.296875 14.59375 
C 3.296875 4.359375 13.09375 -2 22.796875 -2 
C 33.5 -2 42.5 5.65625 42.5 15.78125 
C 42.5 24.84375 36.40625 29.015625 32.40625 31.703125 
z
M 14.09375 44.09375 
C 13.296875 44.59375 9.296875 47.671875 9.296875 52.359375 
C 9.296875 58.421875 15.59375 63 22.796875 63 
C 30.703125 63 36.5 57.4375 36.5 50.96875 
C 36.5 41.703125 26.09375 36.421875 25.59375 36.421875 
C 25.5 36.421875 25.40625 36.421875 24.59375 37.03125 
z
M 32.5 23.734375 
C 34 22.640625 38.796875 19.375 38.796875 13.296875 
C 38.796875 5.953125 31.40625 0.390625 23 0.390625 
C 13.90625 0.390625 7 6.84375 7 14.6875 
C 7 22.546875 13.09375 29.09375 20 32.1875 
z
" id="CMR17-56"/>
      </defs>
      <g transform="translate(234.982274 268.488498)scale(0.1 -0.1)">
       <use transform="scale(0.996264)" xlink:href="#CMR17-56"/>
      </g>
     </g>
    </g>
    <g id="xtick_23">
     <g id="line2d_158">
      <g>
       <use style="stroke:#000000;stroke-width:0.8;" x="287.28" xlink:href="#m61a48240ca" y="256.32"/>
      </g>
     </g>
     <g id="line2d_159">
      <g>
       <use style="stroke:#000000;stroke-width:0.8;" x="287.28" xlink:href="#m61a48240ca" y="213.12"/>
      </g>
     </g>
     <g id="text_18">
      <!-- $10$ -->
      <g transform="translate(282.298665 268.488498)scale(0.1 -0.1)">
       <use transform="scale(0.996264)" xlink:href="#CMR17-49"/>
       <use transform="translate(45.690477 0)scale(0.996264)" xlink:href="#CMR17-48"/>
      </g>
     </g>
    </g>
    <g id="xtick_24">
     <g id="line2d_160">
      <g>
       <use style="stroke:#000000;stroke-width:0.8;" x="337.087059" xlink:href="#m61a48240ca" y="256.32"/>
      </g>
     </g>
     <g id="line2d_161">
      <g>
       <use style="stroke:#000000;stroke-width:0.8;" x="337.087059" xlink:href="#m61a48240ca" y="213.12"/>
      </g>
     </g>
     <g id="text_19">
      <!-- $12$ -->
      <g transform="translate(332.105724 268.488498)scale(0.1 -0.1)">
       <use transform="scale(0.996264)" xlink:href="#CMR17-49"/>
       <use transform="translate(45.690477 0)scale(0.996264)" xlink:href="#CMR17-50"/>
      </g>
     </g>
    </g>
    <g id="xtick_25">
     <g id="line2d_162">
      <g>
       <use style="stroke:#000000;stroke-width:0.8;" x="386.894118" xlink:href="#m61a48240ca" y="256.32"/>
      </g>
     </g>
     <g id="line2d_163">
      <g>
       <use style="stroke:#000000;stroke-width:0.8;" x="386.894118" xlink:href="#m61a48240ca" y="213.12"/>
      </g>
     </g>
     <g id="text_20">
      <!-- $14$ -->
      <g transform="translate(381.912782 268.488498)scale(0.1 -0.1)">
       <use transform="scale(0.996264)" xlink:href="#CMR17-49"/>
       <use transform="translate(45.690477 0)scale(0.996264)" xlink:href="#CMR17-52"/>
      </g>
     </g>
    </g>
    <g id="xtick_26">
     <g id="line2d_164">
      <g>
       <use style="stroke:#000000;stroke-width:0.8;" x="436.701176" xlink:href="#m61a48240ca" y="256.32"/>
      </g>
     </g>
     <g id="line2d_165">
      <g>
       <use style="stroke:#000000;stroke-width:0.8;" x="436.701176" xlink:href="#m61a48240ca" y="213.12"/>
      </g>
     </g>
     <g id="text_21">
      <!-- $16$ -->
      <g transform="translate(431.719841 268.488498)scale(0.1 -0.1)">
       <use transform="scale(0.996264)" xlink:href="#CMR17-49"/>
       <use transform="translate(45.690477 0)scale(0.996264)" xlink:href="#CMR17-54"/>
      </g>
     </g>
    </g>
    <g id="xtick_27">
     <g id="line2d_166">
      <g>
       <use style="stroke:#000000;stroke-width:0.8;" x="486.508235" xlink:href="#m61a48240ca" y="256.32"/>
      </g>
     </g>
     <g id="line2d_167">
      <g>
       <use style="stroke:#000000;stroke-width:0.8;" x="486.508235" xlink:href="#m61a48240ca" y="213.12"/>
      </g>
     </g>
     <g id="text_22">
      <!-- $18$ -->
      <g transform="translate(481.5269 268.488498)scale(0.1 -0.1)">
       <use transform="scale(0.996264)" xlink:href="#CMR17-49"/>
       <use transform="translate(45.690477 0)scale(0.996264)" xlink:href="#CMR17-56"/>
      </g>
     </g>
    </g>
    <g id="text_23">
     <!-- $t_{\rm min}$ -->
     <defs>
      <path d="M 20.09375 40.09375 
L 29.296875 40.09375 
C 31.203125 40.09375 32.203125 40.09375 32.203125 41.890625 
C 32.203125 43 31.59375 43 29.59375 43 
L 20.796875 43 
L 24.5 57.6875 
C 24.90625 59.078125 24.90625 59.28125 24.90625 60 
C 24.90625 61.609375 23.59375 62.5 22.296875 62.5 
C 21.5 62.5 19.203125 62.203125 18.40625 58.984375 
L 14.5 43 
L 5.09375 43 
C 3.09375 43 2.203125 43 2.203125 41.09375 
C 2.203125 40.09375 2.90625 40.09375 4.796875 40.09375 
L 13.703125 40.09375 
L 7.09375 13.765625 
C 6.296875 10.28125 6 9.28125 6 7.984375 
C 6 3.296875 9.296875 -1 14.90625 -1 
C 25 -1 30.40625 13.5625 30.40625 14.25 
C 30.40625 14.859375 30 15.15625 29.40625 15.15625 
C 29.203125 15.15625 28.796875 15.15625 28.59375 14.75 
C 28.5 14.65625 28.40625 14.546875 27.703125 12.953125 
C 25.59375 7.984375 21 1 15.203125 1 
C 12.203125 1 12 3.5 12 5.6875 
C 12 5.78125 12 7.6875 12.296875 8.875 
z
" id="CMMI12-116"/>
      <path d="M 67.59375 30.203125 
C 67.59375 35.1875 66.703125 43.59375 54.796875 43.59375 
C 48 43.59375 43.296875 39 41.5 33.609375 
L 41.40625 33.609375 
C 40.203125 41.8125 34.296875 43.59375 28.703125 43.59375 
C 20.796875 43.59375 16.703125 37.5 15.203125 33.5 
L 15.09375 33.5 
L 15.09375 43.59375 
L 3.296875 42.5 
L 3.296875 39.90625 
C 9.203125 39.90625 10.09375 39.296875 10.09375 34.5 
L 10.09375 6.6875 
C 10.09375 2.875 9.703125 2.390625 3.296875 2.390625 
L 3.296875 -0.203125 
C 5.703125 0 10.09375 0 12.703125 0 
C 15.296875 0 19.796875 0 22.203125 -0.203125 
L 22.203125 2.390625 
C 15.796875 2.390625 15.40625 2.78125 15.40625 6.6875 
L 15.40625 25.90625 
C 15.40625 35.109375 21 42 28 42 
C 35.40625 42 36.203125 35.40625 36.203125 30.59375 
L 36.203125 6.6875 
C 36.203125 2.875 35.796875 2.390625 29.40625 2.390625 
L 29.40625 -0.203125 
C 31.796875 0 36.203125 0 38.796875 0 
C 41.40625 0 45.90625 0 48.296875 -0.203125 
L 48.296875 2.390625 
C 41.90625 2.390625 41.5 2.78125 41.5 6.6875 
L 41.5 25.90625 
C 41.5 35.109375 47.09375 42 54.09375 42 
C 61.5 42 62.296875 35.40625 62.296875 30.59375 
L 62.296875 6.6875 
C 62.296875 2.875 61.90625 2.390625 55.5 2.390625 
L 55.5 -0.203125 
C 57.90625 0 62.296875 0 64.90625 0 
C 67.5 0 72 0 74.40625 -0.203125 
L 74.40625 2.390625 
C 68 2.390625 67.59375 2.78125 67.59375 6.6875 
z
" id="CMR17-109"/>
      <path d="M 15.5 61.078125 
C 15.5 63.265625 13.703125 65.15625 11.40625 65.15625 
C 9.203125 65.15625 7.296875 63.375 7.296875 61.078125 
C 7.296875 58.890625 9.09375 57 11.40625 57 
C 13.59375 57 15.5 58.796875 15.5 61.078125 
z
M 3.796875 42.28125 
L 3.796875 39.703125 
C 9.40625 39.703125 10.203125 39.09375 10.203125 34.328125 
L 10.203125 6.671875 
C 10.203125 2.875 9.796875 2.390625 3.40625 2.390625 
L 3.40625 -0.203125 
C 5.796875 0 10.09375 0 12.59375 0 
C 15 0 19.09375 0 21.40625 -0.203125 
L 21.40625 2.390625 
C 15.5 2.390625 15.296875 2.984375 15.296875 6.5625 
L 15.296875 43.375 
z
" id="CMR17-105"/>
      <path d="M 41.5 30.203125 
C 41.5 35.296875 40.5 43.59375 28.703125 43.59375 
C 20.796875 43.59375 16.703125 37.5 15.203125 33.5 
L 15.09375 33.5 
L 15.09375 43.59375 
L 3.296875 42.5 
L 3.296875 39.90625 
C 9.203125 39.90625 10.09375 39.296875 10.09375 34.5 
L 10.09375 6.6875 
C 10.09375 2.875 9.703125 2.390625 3.296875 2.390625 
L 3.296875 -0.203125 
C 5.703125 0 10.09375 0 12.703125 0 
C 15.296875 0 19.796875 0 22.203125 -0.203125 
L 22.203125 2.390625 
C 15.796875 2.390625 15.40625 2.78125 15.40625 6.6875 
L 15.40625 25.90625 
C 15.40625 35.109375 21 42 28 42 
C 35.40625 42 36.203125 35.40625 36.203125 30.59375 
L 36.203125 6.6875 
C 36.203125 2.875 35.796875 2.390625 29.40625 2.390625 
L 29.40625 -0.203125 
C 31.796875 0 36.203125 0 38.796875 0 
C 41.40625 0 45.90625 0 48.296875 -0.203125 
L 48.296875 2.390625 
C 41.90625 2.390625 41.5 2.78125 41.5 6.6875 
z
" id="CMR17-110"/>
     </defs>
     <g transform="translate(272.376621 288.262673)scale(0.2 -0.2)">
      <use transform="translate(0 14.943915)scale(0.996264)" xlink:href="#CMMI12-116"/>
      <use transform="translate(35.22633 0)scale(0.697382)" xlink:href="#CMR17-109"/>
      <use transform="translate(89.069797 0)scale(0.697382)" xlink:href="#CMR17-105"/>
      <use transform="translate(106.479456 0)scale(0.697382)" xlink:href="#CMR17-110"/>
     </g>
    </g>
   </g>
   <g id="matplotlib.axis_6">
    <g id="ytick_9">
     <g id="line2d_168">
      <g>
       <use style="stroke:#000000;stroke-width:0.8;" x="75.6" xlink:href="#m7f2eb24ed3" y="256.32"/>
      </g>
     </g>
     <g id="text_24">
      <!-- $0.00$ -->
      <g transform="translate(52.638586 259.779249)scale(0.1 -0.1)">
       <use transform="scale(0.996264)" xlink:href="#CMR17-48"/>
       <use transform="translate(45.690477 0)scale(0.996264)" xlink:href="#CMMI12-58"/>
       <use transform="translate(72.787654 0)scale(0.996264)" xlink:href="#CMR17-48"/>
       <use transform="translate(118.478131 0)scale(0.996264)" xlink:href="#CMR17-48"/>
      </g>
     </g>
    </g>
    <g id="ytick_10">
     <g id="line2d_169">
      <g>
       <use style="stroke:#000000;stroke-width:0.8;" x="75.6" xlink:href="#m7f2eb24ed3" y="241.92"/>
      </g>
     </g>
     <g id="text_25">
      <!-- $0.33$ -->
      <g transform="translate(52.638586 245.379249)scale(0.1 -0.1)">
       <use transform="scale(0.996264)" xlink:href="#CMR17-48"/>
       <use transform="translate(45.690477 0)scale(0.996264)" xlink:href="#CMMI12-58"/>
       <use transform="translate(72.787654 0)scale(0.996264)" xlink:href="#CMR17-51"/>
       <use transform="translate(118.478131 0)scale(0.996264)" xlink:href="#CMR17-51"/>
      </g>
     </g>
    </g>
    <g id="ytick_11">
     <g id="line2d_170">
      <g>
       <use style="stroke:#000000;stroke-width:0.8;" x="75.6" xlink:href="#m7f2eb24ed3" y="227.083636"/>
      </g>
     </g>
     <g id="text_26">
      <!-- $0.67$ -->
      <g transform="translate(52.638586 230.542886)scale(0.1 -0.1)">
       <use transform="scale(0.996264)" xlink:href="#CMR17-48"/>
       <use transform="translate(45.690477 0)scale(0.996264)" xlink:href="#CMMI12-58"/>
       <use transform="translate(72.787654 0)scale(0.996264)" xlink:href="#CMR17-54"/>
       <use transform="translate(118.478131 0)scale(0.996264)" xlink:href="#CMR17-55"/>
      </g>
     </g>
    </g>
    <g id="text_27">
     <!-- $w$ -->
     <defs>
      <path d="M 34.40625 6.09375 
C 36.59375 0.09375 42.796875 -1 46.59375 -1 
C 54.203125 -1 58.703125 5.59375 61.5 12.46875 
C 63.796875 18.265625 67.5 31.4375 67.5 37.328125 
C 67.5 43.40625 64.40625 44 63.5 44 
C 61.09375 44 58.90625 41.609375 58.90625 39.609375 
C 58.90625 38.421875 59.59375 37.71875 60.09375 37.328125 
C 61 36.421875 63.59375 33.734375 63.59375 28.546875 
C 63.59375 25.140625 60.796875 15.765625 58.703125 11.078125 
C 55.90625 4.984375 52.203125 1 47 1 
C 41.40625 1 39.59375 5.1875 39.59375 9.78125 
C 39.59375 12.671875 40.5 16.171875 40.90625 17.859375 
L 45.09375 34.625 
C 45.59375 36.625 46.5 40.109375 46.5 40.515625 
C 46.5 42.015625 45.296875 43.015625 43.796875 43.015625 
C 40.90625 43.015625 40.203125 40.515625 39.59375 38.125 
C 38.59375 34.234375 34.40625 17.359375 34 15.171875 
C 33.59375 13.46875 33.59375 12.375 33.59375 10.171875 
C 33.59375 7.78125 30.40625 3.984375 30.296875 3.796875 
C 29.203125 2.6875 27.59375 1 24.5 1 
C 16.59375 1 16.59375 8.484375 16.59375 10.171875 
C 16.59375 13.375 17.296875 17.765625 21.796875 29.640625 
C 23 32.734375 23.5 34.03125 23.5 36.015625 
C 23.5 40.21875 20.5 44 15.59375 44 
C 6.40625 44 2.703125 29.53125 2.703125 28.734375 
C 2.703125 28.34375 3.09375 27.84375 3.796875 27.84375 
C 4.703125 27.84375 4.796875 28.234375 5.203125 29.625 
C 7.703125 38.34375 11.59375 41.90625 15.296875 41.90625 
C 16.296875 41.90625 17.90625 41.90625 17.90625 38.71875 
C 17.90625 38.21875 17.90625 36.125 16.203125 31.734375 
C 11.5 19.265625 10.5 15.171875 10.5 11.375 
C 10.5 0.890625 19.09375 -1 24.203125 -1 
C 25.90625 -1 30.40625 -1 34.40625 6.09375 
z
" id="CMMI12-119"/>
     </defs>
     <g transform="translate(44.762952 241.693194)rotate(-90)scale(0.2 -0.2)">
      <use transform="scale(0.996264)" xlink:href="#CMMI12-119"/>
     </g>
    </g>
   </g>
   <g id="line2d_171">
    <g clip-path="url(#pdbffc2de7b)">
     <use style="fill-opacity:0;stroke:#ff0000;stroke-linejoin:miter;" x="83.071059" xlink:href="#mb18d794679" y="256.317076"/>
    </g>
   </g>
   <g id="line2d_172">
    <g clip-path="url(#pdbffc2de7b)">
     <use style="fill-opacity:0;stroke:#008000;stroke-linejoin:miter;" x="88.051765" xlink:href="#m98830bf796" y="248.819883"/>
    </g>
   </g>
   <g id="line2d_173">
    <g clip-path="url(#pdbffc2de7b)">
     <use style="fill-opacity:0;stroke:#0000ff;stroke-linejoin:miter;" x="93.032471" xlink:href="#m3319e87044" y="220.186677"/>
    </g>
   </g>
   <g id="line2d_174">
    <g clip-path="url(#pdbffc2de7b)">
     <use style="fill-opacity:0;stroke:#ff0000;stroke-linejoin:miter;" x="107.974588" xlink:href="#mb18d794679" y="251.625101"/>
    </g>
   </g>
   <g id="line2d_175">
    <g clip-path="url(#pdbffc2de7b)">
     <use style="fill-opacity:0;stroke:#008000;stroke-linejoin:miter;" x="112.955294" xlink:href="#m98830bf796" y="244.78974"/>
    </g>
   </g>
   <g id="line2d_176">
    <g clip-path="url(#pdbffc2de7b)">
     <use style="fill-opacity:0;stroke:#0000ff;stroke-linejoin:miter;" x="117.936" xlink:href="#m3319e87044" y="228.908796"/>
    </g>
   </g>
   <g id="line2d_177">
    <g clip-path="url(#pdbffc2de7b)">
     <use style="fill-opacity:0;stroke:#ff0000;stroke-linejoin:miter;" x="132.878118" xlink:href="#mb18d794679" y="220.253666"/>
    </g>
   </g>
   <g id="line2d_178">
    <g clip-path="url(#pdbffc2de7b)">
     <use style="fill-opacity:0;stroke:#008000;stroke-linejoin:miter;" x="137.858824" xlink:href="#m98830bf796" y="251.70249"/>
    </g>
   </g>
   <g id="line2d_179">
    <g clip-path="url(#pdbffc2de7b)">
     <use style="fill-opacity:0;stroke:#0000ff;stroke-linejoin:miter;" x="142.839529" xlink:href="#m3319e87044" y="253.36748"/>
    </g>
   </g>
   <g id="line2d_180">
    <g clip-path="url(#pdbffc2de7b)">
     <use style="fill-opacity:0;stroke:#ff0000;stroke-linejoin:miter;" x="157.781647" xlink:href="#mb18d794679" y="227.400991"/>
    </g>
   </g>
   <g id="line2d_181">
    <g clip-path="url(#pdbffc2de7b)">
     <use style="fill-opacity:0;stroke:#008000;stroke-linejoin:miter;" x="162.762353" xlink:href="#m98830bf796" y="246.146963"/>
    </g>
   </g>
   <g id="line2d_182">
    <g clip-path="url(#pdbffc2de7b)">
     <use style="fill-opacity:0;stroke:#0000ff;stroke-linejoin:miter;" x="167.743059" xlink:href="#m3319e87044" y="251.775682"/>
    </g>
   </g>
   <g id="line2d_183">
    <g clip-path="url(#pdbffc2de7b)">
     <use style="fill-opacity:0;stroke:#ff0000;stroke-linejoin:miter;" x="182.685176" xlink:href="#mb18d794679" y="223.528234"/>
    </g>
   </g>
   <g id="line2d_184">
    <g clip-path="url(#pdbffc2de7b)">
     <use style="fill-opacity:0;stroke:#008000;stroke-linejoin:miter;" x="187.665882" xlink:href="#m98830bf796" y="249.052744"/>
    </g>
   </g>
   <g id="line2d_185">
    <g clip-path="url(#pdbffc2de7b)">
     <use style="fill-opacity:0;stroke:#0000ff;stroke-linejoin:miter;" x="192.646588" xlink:href="#m3319e87044" y="252.742658"/>
    </g>
   </g>
   <g id="line2d_186">
    <g clip-path="url(#pdbffc2de7b)">
     <use style="fill-opacity:0;stroke:#ff0000;stroke-linejoin:miter;" x="207.588706" xlink:href="#mb18d794679" y="223.324949"/>
    </g>
   </g>
   <g id="line2d_187">
    <g clip-path="url(#pdbffc2de7b)">
     <use style="fill-opacity:0;stroke:#008000;stroke-linejoin:miter;" x="212.569412" xlink:href="#m98830bf796" y="249.514762"/>
    </g>
   </g>
   <g id="line2d_188">
    <g clip-path="url(#pdbffc2de7b)">
     <use style="fill-opacity:0;stroke:#0000ff;stroke-linejoin:miter;" x="217.550118" xlink:href="#m3319e87044" y="252.483925"/>
    </g>
   </g>
   <g id="line2d_189">
    <g clip-path="url(#pdbffc2de7b)">
     <use style="fill-opacity:0;stroke:#ff0000;stroke-linejoin:miter;" x="232.492235" xlink:href="#mb18d794679" y="223.110194"/>
    </g>
   </g>
   <g id="line2d_190">
    <g clip-path="url(#pdbffc2de7b)">
     <use style="fill-opacity:0;stroke:#008000;stroke-linejoin:miter;" x="237.472941" xlink:href="#m98830bf796" y="249.599236"/>
    </g>
   </g>
   <g id="line2d_191">
    <g clip-path="url(#pdbffc2de7b)">
     <use style="fill-opacity:0;stroke:#0000ff;stroke-linejoin:miter;" x="242.453647" xlink:href="#m3319e87044" y="252.614207"/>
    </g>
   </g>
   <g id="line2d_192">
    <g clip-path="url(#pdbffc2de7b)">
     <use style="fill-opacity:0;stroke:#ff0000;stroke-linejoin:miter;" x="257.395765" xlink:href="#mb18d794679" y="223.53182"/>
    </g>
   </g>
   <g id="line2d_193">
    <g clip-path="url(#pdbffc2de7b)">
     <use style="fill-opacity:0;stroke:#008000;stroke-linejoin:miter;" x="262.376471" xlink:href="#m98830bf796" y="250.062241"/>
    </g>
   </g>
   <g id="line2d_194">
    <g clip-path="url(#pdbffc2de7b)">
     <use style="fill-opacity:0;stroke:#0000ff;stroke-linejoin:miter;" x="267.357176" xlink:href="#m3319e87044" y="251.729575"/>
    </g>
   </g>
   <g id="line2d_195">
    <g clip-path="url(#pdbffc2de7b)">
     <use style="fill-opacity:0;stroke:#ff0000;stroke-linejoin:miter;" x="282.299294" xlink:href="#mb18d794679" y="221.255712"/>
    </g>
   </g>
   <g id="line2d_196">
    <g clip-path="url(#pdbffc2de7b)">
     <use style="fill-opacity:0;stroke:#008000;stroke-linejoin:miter;" x="287.28" xlink:href="#m98830bf796" y="247.747925"/>
    </g>
   </g>
   <g id="line2d_197">
    <g clip-path="url(#pdbffc2de7b)">
     <use style="fill-opacity:0;stroke:#0000ff;stroke-linejoin:miter;" x="292.260706" xlink:href="#m3319e87044" y="256.32"/>
    </g>
   </g>
   <g id="patch_17">
    <path d="M 75.6 256.32 
L 75.6 213.12 
" style="fill:none;stroke:#000000;stroke-linecap:square;stroke-linejoin:miter;stroke-width:0.8;"/>
   </g>
   <g id="patch_18">
    <path d="M 498.96 256.32 
L 498.96 213.12 
" style="fill:none;stroke:#000000;stroke-linecap:square;stroke-linejoin:miter;stroke-width:0.8;"/>
   </g>
   <g id="patch_19">
    <path d="M 75.6 256.32 
L 498.96 256.32 
" style="fill:none;stroke:#000000;stroke-linecap:square;stroke-linejoin:miter;stroke-width:0.8;"/>
   </g>
   <g id="patch_20">
    <path d="M 75.6 213.12 
L 498.96 213.12 
" style="fill:none;stroke:#000000;stroke-linecap:square;stroke-linejoin:miter;stroke-width:0.8;"/>
   </g>
  </g>
 </g>
 <defs>
  <clipPath id="p41c4883b14">
   <rect height="167.04" width="423.36" x="75.6" y="2.88"/>
  </clipPath>
  <clipPath id="pfafc35b3de">
   <rect height="43.2" width="423.36" x="75.6" y="169.92"/>
  </clipPath>
  <clipPath id="pdbffc2de7b">
   <rect height="43.2" width="423.36" x="75.6" y="213.12"/>
  </clipPath>
 </defs>
</svg>
